<svg width="200" height="50" viewBox="0 0 200 50" fill="none" xmlns="http://www.w3.org/2000/svg">
<g clip-path="url(#clip0_48_777)">
<path d="M63.0516 39.5644L65.4924 33.8594C68.165 35.8386 71.6508 36.8862 75.1374 36.8862C77.694 36.8862 79.3208 35.897 79.3208 34.3836C79.2624 30.192 63.9232 33.452 63.8066 22.9136C63.7482 17.5578 68.5132 13.4245 75.254 13.4245C79.2624 13.4245 83.2724 14.4145 86.119 16.6853L83.8382 22.512C81.219 20.8278 77.984 19.6537 74.905 19.6537C72.8132 19.6537 71.4182 20.6428 71.4182 21.9244C71.4766 26.0578 86.9332 23.787 87.1074 33.8594C87.1074 39.332 82.4582 43.1744 75.834 43.1744C70.954 43.1744 66.48 42.0104 63.0508 39.5644H63.0516ZM160.242 31.7936C159.625 32.8884 158.729 33.7994 157.645 34.4336C156.56 35.0676 155.327 35.4018 154.071 35.402C150.156 35.402 146.982 32.222 146.982 28.2994C146.982 24.377 150.156 21.197 154.071 21.197C155.327 21.197 156.56 21.5314 157.645 22.1654C158.729 22.7994 159.625 23.7106 160.242 24.8054L167.027 21.0386C164.486 16.4962 159.637 13.4245 154.071 13.4245C145.872 13.4245 139.225 20.0836 139.225 28.2994C139.225 36.5144 145.872 43.1744 154.071 43.1744C159.637 43.1744 164.486 40.1028 167.027 35.5604L160.242 31.7936ZM91.5108 42.592H99.994V1.04199H91.5116L91.5108 42.592ZM171.312 1.04199V42.592H179.795V30.1436L189.847 42.592H200.691L187.907 27.8036L199.761 14.0045H189.382L179.795 25.477V1.04199H171.312ZM126.13 14.0062V17.3837C124.736 15.0545 121.307 13.4245 117.705 13.4245C110.267 13.4245 104.399 20.0036 104.399 28.2704C104.399 36.537 110.267 43.1744 117.705 43.1744C121.307 43.1744 124.736 41.5444 126.13 39.2154V42.592H134.613V14.0062H126.13ZM126.13 31.8512C124.91 33.8886 122.353 35.4012 119.507 35.4012C115.591 35.4012 112.417 32.222 112.417 28.2994C112.417 24.377 115.591 21.197 119.507 21.197C122.353 21.197 124.91 22.7686 126.13 24.8636V31.8512Z" fill="black"/>
<path d="M18.2517 0.123718C15.5025 0.123718 13.2742 2.35704 13.2742 5.11122C13.2735 5.76552 13.4017 6.41356 13.6515 7.01832C13.9013 7.62308 14.2678 8.1727 14.73 8.63584C15.1922 9.09898 15.7411 9.46654 16.3453 9.71754C16.9496 9.96854 17.5974 10.0981 18.2517 10.0987H23.23V5.11122C23.2312 3.7897 22.7072 2.52186 21.7736 1.58654C20.84 0.651229 19.5732 0.125044 18.2517 0.123718ZM18.2517 13.4237H4.9775C2.22834 13.4237 0 15.657 0 18.412C0 21.1662 2.22834 23.3996 4.9775 23.3996H18.2525C21.0008 23.3996 23.23 21.1662 23.23 18.412C23.23 15.657 21.0008 13.4237 18.2517 13.4237Z" fill="#2FBDEE"/>
<path d="M49.7769 18.412C49.7769 15.657 47.5477 13.4237 44.7985 13.4237C42.0493 13.4237 39.8211 15.657 39.8211 18.412V23.3996H44.7985C46.1201 23.3982 47.3869 22.872 48.3205 21.9368C49.2541 21.0014 49.7779 19.7336 49.7769 18.412ZM36.5027 18.412V5.11122C36.5037 3.7897 35.9799 2.52186 35.0463 1.58654C34.1127 0.651229 32.8459 0.125044 31.5243 0.123718C28.7751 0.123718 26.5469 2.35704 26.5469 5.11122V18.4112C26.5469 21.167 28.7751 23.4004 31.5243 23.4004C32.8459 23.399 34.1127 22.8728 35.0463 21.9376C35.9799 21.0022 36.5037 19.7344 36.5027 18.4129" fill="#29AD72"/>
<path d="M31.5243 50.0004C32.8459 49.9992 34.1127 49.473 35.0463 48.5376C35.9799 47.6024 36.5037 46.3344 36.5027 45.013C36.5037 43.6914 35.9799 42.4236 35.0463 41.4882C34.1127 40.553 32.8459 40.0268 31.5243 40.0254H26.5469V45.013C26.5469 47.7672 28.7751 50.0004 31.5243 50.0004ZM31.5243 36.7004H44.7993C47.5477 36.7004 49.7769 34.4672 49.7769 31.7122C49.7779 30.3906 49.2541 29.1228 48.3205 28.1874C47.3869 27.2522 46.1201 26.726 44.7985 26.7246H31.5243C28.7751 26.7246 26.5469 28.958 26.5469 31.7122C26.5461 32.3664 26.6745 33.0144 26.9243 33.6192C27.1739 34.224 27.5405 34.7736 28.0027 35.2368C28.4649 35.6998 29.0137 36.0674 29.6181 36.3184C30.2223 36.5694 30.8701 36.699 31.5243 36.6996" fill="#E9A929"/>
<path d="M2.51153e-06 31.7122C-0.000654428 32.3664 0.127571 33.0144 0.377358 33.6192C0.627146 34.224 0.993602 34.7736 1.45581 35.2368C1.91801 35.6998 2.4669 36.0674 3.07116 36.3184C3.67542 36.5694 4.3232 36.699 4.9775 36.6996C6.29902 36.6982 7.5659 36.172 8.4995 35.2368C9.43308 34.3014 9.95694 33.0336 9.95584 31.7122V26.7246H4.9775C2.22834 26.7246 2.51153e-06 28.958 2.51153e-06 31.7122ZM13.2742 31.7122V45.0122C13.2742 47.7672 15.5025 50.0004 18.2517 50.0004C19.5732 49.9992 20.84 49.473 21.7736 48.5376C22.7072 47.6024 23.2312 46.3344 23.23 45.013V31.7122C23.2306 31.0578 23.1024 30.4096 22.8526 29.8048C22.6028 29.2 22.2362 28.6504 21.774 28.1872C21.3116 27.724 20.7626 27.3566 20.1582 27.1056C19.5539 26.8546 18.9061 26.7252 18.2517 26.7246C15.5025 26.7246 13.2742 28.958 13.2742 31.7122Z" fill="#DC1C50"/>
</g>
<defs>
<clipPath id="clip0_48_777">
<rect width="200" height="50" fill="white"/>
</clipPath>
</defs>
</svg>
