<svg width="49" height="57" viewBox="0 0 49 57" fill="none" xmlns="http://www.w3.org/2000/svg">
<g opacity="0.25" filter="url(#filter0_f_48_1060)">
<rect x="5.56641" y="27.8563" width="40.0295" height="25.0184" rx="12.5092" fill="url(#paint0_linear_48_1060)"/>
</g>
<rect x="4.35156" y="6.11414" width="43.3653" height="43.3652" rx="17.6284" fill="url(#paint1_linear_48_1060)"/>
<g filter="url(#filter1_i_48_1060)">
<path d="M31.8755 29.4702L32.6001 24.7932H28.1366V21.7532C28.1366 20.4743 28.7597 19.2247 30.7523 19.2247H32.8102V15.242C31.6118 15.0478 30.4009 14.9428 29.1872 14.9277C25.5136 14.9277 23.1152 17.1712 23.1152 21.227V24.7932H19.043V29.4702H23.1152V40.7826H28.1366V29.4702H31.8755Z" fill="white"/>
</g>
<path d="M1.55166 18.3894C1.56465 18.6748 1.67803 19.008 1.98892 19.2358C2.24674 19.4247 2.52412 19.452 2.69732 19.4488C5.03896 19.5235 7.30536 19.2004 9.55919 18.4649L9.55921 18.465L9.56962 18.4614C11.8111 17.6981 13.8616 16.5892 15.7687 15.004C17.0038 13.9773 18.1366 12.7378 19.1205 11.3293C20.119 9.95196 20.9055 8.49507 21.4209 6.99743C21.4273 6.98183 21.4342 6.96516 21.4415 6.94749C21.4715 6.87474 21.5085 6.78514 21.5477 6.68476C21.5671 6.74647 21.5866 6.80944 21.6064 6.87373C21.6566 7.06208 21.7709 7.30987 22.0225 7.48615C22.3233 7.69687 22.6754 7.70374 22.955 7.59478C23.1834 7.50573 23.3477 7.34986 23.4473 7.22319C23.5023 7.15324 23.5644 7.05846 23.6108 6.94101C23.6382 6.87153 23.6764 6.75313 23.6803 6.60505C23.7665 5.85482 23.7378 5.03925 23.4589 4.19038C23.3598 3.85517 23.133 3.30705 22.8696 2.82564C22.7347 2.57913 22.5725 2.31711 22.3919 2.09878C22.3014 1.9894 22.1911 1.8723 22.0612 1.77138C21.9369 1.67477 21.7479 1.55619 21.5027 1.5109L21.4925 1.50902L21.4823 1.50738C21.2819 1.47533 21.1045 1.50668 20.9985 1.53146C20.8802 1.55914 20.7677 1.59924 20.6709 1.63875C20.477 1.71791 20.2771 1.82333 20.1034 1.92307C19.7658 2.11692 19.4236 2.34994 19.2869 2.4636C18.8211 2.85077 18.4583 3.31167 18.1325 3.72555C18.0971 3.77057 18.0621 3.81504 18.0274 3.8588L18.0117 3.87862L17.9972 3.89934C17.7232 4.29053 17.5217 4.76679 17.3772 5.25247L17.293 5.53544L17.3741 5.74355C17.3782 5.77283 17.3842 5.81418 17.3902 5.84706C17.4012 5.90722 17.4282 6.04215 17.5024 6.1845C17.5834 6.34008 17.7577 6.57013 18.0797 6.66601L18.2987 6.73123L18.4723 6.69062C17.1709 8.77999 15.5746 10.5761 13.7284 12.1107C10.4175 14.8628 6.67863 16.5635 2.5423 17.2273L2.51228 17.2321L2.48268 17.239C2.28088 17.2862 2.03398 17.3849 1.8361 17.596C1.62787 17.8182 1.53259 18.1046 1.55166 18.3894ZM17.3671 5.69403C17.3672 5.69381 17.3678 5.69704 17.3689 5.70442C17.3676 5.69796 17.3671 5.69426 17.3671 5.69403ZM2.65723 17.7283L2.65558 17.7284C2.65601 17.7283 2.65656 17.7283 2.65723 17.7283Z" fill="url(#paint2_linear_48_1060)" stroke="white" stroke-width="1.72103"/>
<defs>
<filter id="filter0_f_48_1060" x="2.35805" y="24.648" width="46.448" height="31.4351" filterUnits="userSpaceOnUse" color-interpolation-filters="sRGB">
<feFlood flood-opacity="0" result="BackgroundImageFix"/>
<feBlend mode="normal" in="SourceGraphic" in2="BackgroundImageFix" result="shape"/>
<feGaussianBlur stdDeviation="1.60418" result="effect1_foregroundBlur_48_1060"/>
</filter>
<filter id="filter1_i_48_1060" x="19.043" y="14.9277" width="13.7656" height="26.1487" filterUnits="userSpaceOnUse" color-interpolation-filters="sRGB">
<feFlood flood-opacity="0" result="BackgroundImageFix"/>
<feBlend mode="normal" in="SourceGraphic" in2="BackgroundImageFix" result="shape"/>
<feColorMatrix in="SourceAlpha" type="matrix" values="0 0 0 0 0 0 0 0 0 0 0 0 0 0 0 0 0 0 127 0" result="hardAlpha"/>
<feOffset dy="0.293806"/>
<feGaussianBlur stdDeviation="0.587612"/>
<feComposite in2="hardAlpha" operator="arithmetic" k2="-1" k3="1"/>
<feColorMatrix type="matrix" values="0 0 0 0 0 0 0 0 0 0 0 0 0 0 0 0 0 0 0.2 0"/>
<feBlend mode="normal" in2="shape" result="effect1_innerShadow_48_1060"/>
</filter>
<linearGradient id="paint0_linear_48_1060" x1="25.5811" y1="52.1437" x2="25.5811" y2="27.8563" gradientUnits="userSpaceOnUse">
<stop stop-color="#0062E0"/>
<stop offset="1" stop-color="#19AFFF"/>
</linearGradient>
<linearGradient id="paint1_linear_48_1060" x1="26.0342" y1="48.2123" x2="26.0342" y2="6.11414" gradientUnits="userSpaceOnUse">
<stop stop-color="#0062E0"/>
<stop offset="1" stop-color="#19AFFF"/>
</linearGradient>
<linearGradient id="paint2_linear_48_1060" x1="2" y1="18.7472" x2="21.3912" y2="3.76313" gradientUnits="userSpaceOnUse">
<stop stop-color="#E03600"/>
<stop offset="1" stop-color="#FF5019"/>
</linearGradient>
</defs>
</svg>
