<svg width="27" height="24" viewBox="0 0 27 24" fill="none" xmlns="http://www.w3.org/2000/svg">
<path d="M1.64674 10.4521C1.64674 10.4521 13.5263 5.18361 17.6463 3.32846C19.2257 2.58646 24.5818 0.211858 24.5818 0.211858C24.5818 0.211858 27.0539 -0.82694 26.8478 1.69596C26.7791 2.73486 26.2298 6.37081 25.6805 10.3037C24.8564 15.869 23.9638 21.9537 23.9638 21.9537C23.9638 21.9537 23.8264 23.6605 22.6591 23.9573C21.4918 24.2541 19.569 22.9185 19.2257 22.6216C18.951 22.399 14.0756 19.0598 12.2902 17.4273C11.8096 16.9821 11.2602 16.0917 12.3589 15.0528C14.8309 12.604 17.7836 9.56166 19.569 7.63236C20.393 6.74186 21.217 4.66416 17.7836 7.18706C12.9083 10.8231 8.10152 14.2365 8.10152 14.2365C8.10152 14.2365 7.0028 14.9785 4.94279 14.3107C2.88269 13.6429 0.479315 12.7524 0.479315 12.7524C0.479315 12.7524 -1.16862 11.6394 1.64674 10.4521Z" fill="white" fill-opacity="0.95"/>
</svg>
