<svg width="57" height="50" viewBox="0 0 57 50" fill="none" xmlns="http://www.w3.org/2000/svg">
<g opacity="0.25" filter="url(#filter0_f_48_1054)">
<rect x="3.21484" y="21.7422" width="40.0295" height="25.0184" rx="12.5092" fill="url(#paint0_linear_48_1054)"/>
</g>
<rect x="2" width="43.3653" height="43.3652" rx="17.6284" fill="url(#paint1_linear_48_1054)"/>
<g clip-path="url(#clip0_48_1054)" filter="url(#filter1_i_48_1054)">
<g filter="url(#filter2_i_48_1054)">
<path d="M29.5239 23.3576L30.2485 18.6806H25.785V15.6406C25.785 14.3618 26.4082 13.1121 28.4008 13.1121H30.4586V9.12939C29.2602 8.93525 28.0493 8.83022 26.8357 8.81516C23.162 8.81516 20.7636 11.0586 20.7636 15.1145V18.6806H16.6914V23.3576H20.7636V34.6701H25.785V23.3576H29.5239Z" fill="white"/>
</g>
</g>
<path d="M39.8576 18.7499L39.8666 18.7552L39.8757 18.7603C41.2994 19.5713 42.848 19.9776 44.4971 19.9776C46.1462 19.9776 47.69 19.5712 49.102 18.7565L49.102 18.7566L49.1068 18.7538C49.1325 18.7388 49.1581 18.7237 49.1836 18.7086L51.165 20.6782C51.1656 20.6789 51.1663 20.6795 51.1669 20.6802C51.4236 20.9364 51.7597 21.1762 52.1838 21.299C52.6254 21.4269 53.0693 21.4001 53.4735 21.2586L53.4912 21.2524L53.5087 21.2457C54.2117 20.978 54.7316 20.446 54.9724 19.7238C55.1 19.3411 55.136 18.9122 55.0208 18.4746C54.9079 18.0456 54.6744 17.7015 54.4103 17.4368C54.4097 17.4362 54.409 17.4355 54.4084 17.4349L52.433 15.4477C52.4428 15.431 52.4525 15.4142 52.4622 15.3974C53.2912 13.9728 53.7078 12.4209 53.7078 10.7669C53.7078 9.11545 53.2924 7.57068 52.4622 6.15951C51.6508 4.7386 50.5254 3.61317 49.1044 2.80173C47.6933 1.97162 46.1485 1.55626 44.4971 1.55626C42.8431 1.55626 41.2912 1.9728 39.8667 2.80175C38.4584 3.61476 37.3352 4.74035 36.5102 6.15719L36.5102 6.15719L36.5074 6.16199C35.6928 7.57403 35.2864 9.11777 35.2864 10.7669C35.2864 12.416 35.6927 13.9646 36.5037 15.3883L36.5088 15.3974L36.5141 15.4063C37.3391 16.8052 38.4588 17.9249 39.8576 18.7499ZM46.8819 14.7901C46.2022 15.1695 45.4183 15.3723 44.4971 15.3723C43.5799 15.3723 42.7873 15.1712 42.0894 14.79C41.4042 14.3926 40.8714 13.8598 40.474 13.1746C40.3434 12.9356 40.234 12.6855 40.1465 12.423L41.9312 14.2077C42.3318 14.6083 42.8593 14.8926 43.4896 14.9321L43.5328 14.9348H43.576C44.2433 14.9348 44.8039 14.6476 45.2207 14.2308L45.2238 14.2277L48.882 10.5464C48.8826 10.5459 48.8832 10.5453 48.8838 10.5447C48.9536 10.4748 49.0212 10.3993 49.085 10.3182C49.0966 10.4641 49.1024 10.6136 49.1024 10.7669C49.1024 11.6822 48.8948 12.4732 48.4991 13.1713L48.4991 13.1713L48.4953 13.1781C48.1153 13.8575 47.5861 14.3902 46.8819 14.7901ZM44.4971 6.16161C45.339 6.16161 46.0658 6.33727 46.7044 6.66935C46.6887 6.6735 46.673 6.67784 46.6574 6.68238C46.2336 6.80505 45.8975 7.04475 45.6409 7.30083C45.6401 7.30159 45.6393 7.30236 45.6386 7.30312L43.5703 9.35575L43.35 9.13971C43.0876 8.87876 42.7473 8.64189 42.3219 8.52191C41.8811 8.39758 41.4421 8.4254 41.0436 8.5582L41.0338 8.56148L41.024 8.56491C40.6794 8.68557 40.3883 8.87119 40.1521 9.10446C40.2387 8.85108 40.3463 8.61073 40.4739 8.38216C40.8737 7.67796 41.4064 7.14875 42.0859 6.76871L42.0859 6.76873L42.0926 6.76493C42.7909 6.36927 43.5818 6.16161 44.4971 6.16161Z" fill="url(#paint2_linear_48_1054)" stroke="white" stroke-width="2.76321"/>
<path d="M39.858 44.0173L39.867 44.0226L39.876 44.0278C41.2996 44.8387 42.8481 45.245 44.4971 45.245C46.1461 45.245 47.6897 44.8386 49.1017 44.024L49.1017 44.024L49.1065 44.0212C49.1323 44.0062 49.1581 43.991 49.1837 43.9758L51.1655 45.9459C51.1661 45.9465 51.1667 45.9471 51.1674 45.9477C51.424 46.2039 51.7601 46.4437 52.1839 46.5664C52.6255 46.6943 53.0692 46.6675 53.4733 46.526L53.491 46.5199L53.5084 46.5132C54.2113 46.2455 54.731 45.7137 54.9717 44.9917C55.0993 44.6091 55.1353 44.1803 55.0201 43.7429C54.9072 43.314 54.6737 42.9698 54.4096 42.7052C54.409 42.7046 54.4085 42.7041 54.4079 42.7035L52.4321 40.7158C52.442 40.6989 52.4518 40.682 52.4617 40.6649C53.2906 39.2404 53.707 37.6887 53.707 36.0348C53.707 34.3835 53.2918 32.8388 52.4617 31.4277C51.6503 30.0069 50.525 28.8815 49.1041 28.0701C47.6931 27.24 46.1484 26.8247 44.4971 26.8247C42.8432 26.8247 41.2915 27.2412 39.867 28.0701C38.4589 28.8831 37.3358 30.0086 36.5108 31.4254L36.5108 31.4254L36.5081 31.4302C35.6935 32.8421 35.2871 34.3858 35.2871 36.0348C35.2871 37.6838 35.6934 39.2323 36.5043 40.656L36.5094 40.665L36.5147 40.674C37.3396 42.0727 38.4593 43.1924 39.858 44.0173ZM40.1716 34.3142C40.2546 34.082 40.3555 33.8608 40.4733 33.6496C40.8732 32.9453 41.406 32.416 42.0856 32.0359L42.0856 32.0359L42.0923 32.0321C42.3125 31.9073 42.5419 31.8012 42.7815 31.7144C42.677 31.8248 42.5825 31.9491 42.5009 32.0878C42.2701 32.4802 42.1951 32.8983 42.1951 33.2716V33.7329H41.7339C41.3588 33.7329 40.9469 33.8085 40.5594 34.03C40.4157 34.1121 40.2866 34.2079 40.1716 34.3142ZM41.7339 38.3368H42.1951V38.7981C42.1951 39.1732 42.2707 39.5851 42.4922 39.9726C42.5757 40.1187 42.6733 40.2497 42.7817 40.3661C42.5407 40.2821 42.3101 40.1794 42.089 40.0587C41.4037 39.6611 40.8708 39.1283 40.4733 38.443C40.3526 38.2219 40.2499 37.9913 40.166 37.7503C40.2824 37.8587 40.4133 37.9562 40.5594 38.0397C40.9469 38.2612 41.3588 38.3368 41.7339 38.3368ZM46.8822 40.0587C46.6711 40.1766 46.4499 40.2774 46.2176 40.3604C46.324 40.2454 46.4198 40.1163 46.5019 39.9726C46.7234 39.5851 46.799 39.1732 46.799 38.7981V38.3368H47.2603C47.6335 38.3368 48.0516 38.2618 48.444 38.031C48.5827 37.9494 48.707 37.8549 48.8173 37.7505C48.7306 37.9901 48.6245 38.2195 48.4997 38.4397L48.4997 38.4397L48.4959 38.4464C48.1158 39.126 47.5865 39.6588 46.8822 40.0587ZM47.2603 33.7329H46.799V33.2716C46.799 32.8983 46.724 32.4802 46.4932 32.0878C46.4131 31.9517 46.3206 31.8294 46.2184 31.7206C46.4458 31.8052 46.6627 31.9076 46.8701 32.0271L46.882 32.034L46.8941 32.0406C47.5857 32.421 48.1107 32.946 48.4911 33.6377L48.4978 33.6498L48.5047 33.6617C48.6242 33.8691 48.7266 34.086 48.8112 34.3134C48.7024 34.2113 48.5802 34.1188 48.444 34.0387C48.0516 33.8079 47.6335 33.7329 47.2603 33.7329Z" fill="url(#paint3_linear_48_1054)" stroke="white" stroke-width="2.76177"/>
<defs>
<filter id="filter0_f_48_1054" x="0.00648379" y="18.5338" width="46.448" height="31.4351" filterUnits="userSpaceOnUse" color-interpolation-filters="sRGB">
<feFlood flood-opacity="0" result="BackgroundImageFix"/>
<feBlend mode="normal" in="SourceGraphic" in2="BackgroundImageFix" result="shape"/>
<feGaussianBlur stdDeviation="1.60418" result="effect1_foregroundBlur_48_1054"/>
</filter>
<filter id="filter1_i_48_1054" x="10.2266" y="8.22607" width="26.4414" height="26.7363" filterUnits="userSpaceOnUse" color-interpolation-filters="sRGB">
<feFlood flood-opacity="0" result="BackgroundImageFix"/>
<feBlend mode="normal" in="SourceGraphic" in2="BackgroundImageFix" result="shape"/>
<feColorMatrix in="SourceAlpha" type="matrix" values="0 0 0 0 0 0 0 0 0 0 0 0 0 0 0 0 0 0 127 0" result="hardAlpha"/>
<feOffset dy="0.293806"/>
<feGaussianBlur stdDeviation="0.734515"/>
<feComposite in2="hardAlpha" operator="arithmetic" k2="-1" k3="1"/>
<feColorMatrix type="matrix" values="0 0 0 0 0 0 0 0 0 0 0 0 0 0 0 0 0 0 0.1 0"/>
<feBlend mode="normal" in2="shape" result="effect1_innerShadow_48_1054"/>
</filter>
<filter id="filter2_i_48_1054" x="16.6914" y="8.81516" width="13.7656" height="26.1487" filterUnits="userSpaceOnUse" color-interpolation-filters="sRGB">
<feFlood flood-opacity="0" result="BackgroundImageFix"/>
<feBlend mode="normal" in="SourceGraphic" in2="BackgroundImageFix" result="shape"/>
<feColorMatrix in="SourceAlpha" type="matrix" values="0 0 0 0 0 0 0 0 0 0 0 0 0 0 0 0 0 0 127 0" result="hardAlpha"/>
<feOffset dy="0.293806"/>
<feGaussianBlur stdDeviation="0.587612"/>
<feComposite in2="hardAlpha" operator="arithmetic" k2="-1" k3="1"/>
<feColorMatrix type="matrix" values="0 0 0 0 0 0 0 0 0 0 0 0 0 0 0 0 0 0 0.2 0"/>
<feBlend mode="normal" in2="shape" result="effect1_innerShadow_48_1054"/>
</filter>
<linearGradient id="paint0_linear_48_1054" x1="23.2296" y1="46.0296" x2="23.2296" y2="21.7422" gradientUnits="userSpaceOnUse">
<stop stop-color="#0062E0"/>
<stop offset="1" stop-color="#19AFFF"/>
</linearGradient>
<linearGradient id="paint1_linear_48_1054" x1="23.6826" y1="42.0982" x2="23.6826" y2="0" gradientUnits="userSpaceOnUse">
<stop stop-color="#0062E0"/>
<stop offset="1" stop-color="#19AFFF"/>
</linearGradient>
<linearGradient id="paint2_linear_48_1054" x1="45.1883" y1="19.5012" x2="45.1883" y2="2.93787" gradientUnits="userSpaceOnUse">
<stop stop-color="#3AE000"/>
<stop offset="1" stop-color="#55FF19"/>
</linearGradient>
<linearGradient id="paint3_linear_48_1054" x1="45.1883" y1="44.7694" x2="45.1883" y2="28.2056" gradientUnits="userSpaceOnUse">
<stop stop-color="#3AE000"/>
<stop offset="1" stop-color="#55FF19"/>
</linearGradient>
<clipPath id="clip0_48_1054">
<rect width="26.4425" height="26.4425" fill="white" transform="translate(10.2266 8.22607)"/>
</clipPath>
</defs>
</svg>
