<svg width="177" height="50" viewBox="0 0 177 50" fill="none" xmlns="http://www.w3.org/2000/svg">
<path d="M38.013 9.47C37.9789 9.22164 37.7619 9.08385 37.5818 9.06885C37.4031 9.05385 33.902 9.00066 33.902 9.00066C33.902 9.00066 30.9739 6.15717 30.6846 5.86791C30.3954 5.57866 29.8305 5.66598 29.6108 5.73147C29.6081 5.73284 29.061 5.90202 28.14 6.18719C27.9858 5.68781 27.7593 5.07381 27.4359 4.45709C26.3935 2.46775 24.8667 1.41578 23.022 1.41306C23.0193 1.41306 23.0179 1.41306 23.0152 1.41306C22.8869 1.41306 22.76 1.42534 22.6318 1.43625C22.5772 1.37075 22.5226 1.30663 22.4653 1.24386C21.6616 0.384275 20.6316 -0.034605 19.3967 0.00223452C17.0144 0.070456 14.6417 1.791 12.7179 4.84732C11.3643 6.99766 10.3342 9.69926 10.0422 11.7909C7.30652 12.6382 5.39358 13.2303 5.35129 13.244C3.97048 13.6779 3.92683 13.7202 3.74672 15.0219C3.61301 16.0056 0 43.9437 0 43.9437L30.278 49.1803L43.4011 45.918C43.4011 45.918 38.0471 9.71836 38.013 9.47ZM26.6241 6.65655C25.9269 6.87213 25.1341 7.11773 24.2745 7.3838C24.2568 6.17764 24.1135 4.49939 23.5514 3.049C25.3593 3.39148 26.2489 5.43675 26.6241 6.65655ZM22.6904 7.87498C21.1036 8.36615 19.3721 8.90238 17.6352 9.44C18.1237 7.56935 19.0502 5.70691 20.1881 4.48575C20.6111 4.03139 21.2032 3.52519 21.9045 3.23593C22.5635 4.61127 22.7068 6.55831 22.6904 7.87498ZM19.4444 1.5877C20.0039 1.57542 20.4746 1.69822 20.8771 1.96292C20.2331 2.2972 19.6109 2.77748 19.027 3.40375C17.5138 5.02743 16.354 7.54753 15.8915 9.97894C14.4493 10.4251 13.0384 10.8631 11.7395 11.2643C12.5596 7.43701 15.7673 1.69412 19.4444 1.5877Z" fill="#95BF47"/>
<path d="M37.585 9.07035C37.4063 9.05535 33.9052 9.00215 33.9052 9.00215C33.9052 9.00215 30.9772 6.15868 30.6879 5.86942C30.5801 5.76163 30.4341 5.70568 30.2812 5.6825L30.2826 49.1791L43.4044 45.9181C43.4044 45.9181 38.0504 9.71986 38.0163 9.47149C37.9821 9.22313 37.7638 9.08535 37.585 9.07035Z" fill="#5E8E3E"/>
<path d="M23.0055 15.8173L21.4815 21.5192C21.4815 21.5192 19.7814 20.7456 17.7662 20.8725C14.8108 21.0594 14.7794 22.9232 14.8095 23.3912C14.9705 25.9413 21.6793 26.498 22.0559 32.4715C22.352 37.1706 19.5631 40.3852 15.5449 40.6389C10.7216 40.9432 8.06641 38.0984 8.06641 38.0984L9.08841 33.7513C9.08841 33.7513 11.7613 35.768 13.9007 35.6329C15.2979 35.5442 15.7973 34.4076 15.7468 33.6039C15.5367 30.2775 10.0735 30.4739 9.72832 25.008C9.43767 20.4086 12.4586 15.7477 19.1237 15.3275C21.6916 15.1624 23.0055 15.8173 23.0055 15.8173Z" fill="white"/>
<path d="M60.6813 27.7571C59.1723 26.9384 58.3968 26.2482 58.3968 25.2995C58.3968 24.0924 59.474 23.3169 61.1563 23.3169C63.1144 23.3169 64.8629 24.1357 64.8629 24.1357L66.2419 19.9107C66.2419 19.9107 64.9739 18.9187 61.2415 18.9187C56.0475 18.9187 52.4477 21.8932 52.4477 26.0749C52.4477 28.4459 54.1285 30.2567 56.3709 31.549C58.1817 32.583 58.8285 33.3165 58.8285 34.3937C58.8285 35.5143 57.9232 36.4196 56.2424 36.4196C53.7374 36.4196 51.3718 35.1258 51.3718 35.1258L49.9062 39.3508C49.9062 39.3508 52.0918 40.8165 55.7687 40.8165C61.1143 40.8165 64.9509 38.187 64.9509 33.445C64.9495 30.9035 63.0103 29.0928 60.6813 27.7571Z" fill="black"/>
<path d="M81.9766 18.8767C79.3469 18.8767 77.2777 20.1272 75.6835 22.0231L75.5969 21.9798L77.8813 10.0396H71.9322L66.1562 40.4294H72.1054L74.088 30.0414C74.8634 26.1182 76.8893 23.7053 78.7867 23.7053C80.1223 23.7053 80.6407 24.6106 80.6407 25.9044C80.6407 26.7231 80.554 27.7151 80.3822 28.5339L78.1411 40.4308H84.0905L86.4176 28.1454C86.6766 26.8517 86.8495 25.3008 86.8495 24.2655C86.8471 20.9026 85.0799 18.8767 81.9766 18.8767Z" fill="black"/>
<path d="M100.299 18.8766C93.1425 18.8766 88.4023 25.3428 88.4023 32.541C88.4023 37.153 91.2466 40.8598 96.5925 40.8598C103.619 40.8598 108.361 34.5669 108.361 27.1954C108.361 22.9285 105.86 18.8766 100.299 18.8766ZM97.3679 36.2923C95.3417 36.2923 94.4794 34.5682 94.4794 32.4124C94.4794 29.0075 96.2474 23.4468 99.4802 23.4468C101.593 23.4468 102.281 25.2575 102.281 27.0249C102.281 30.6883 100.515 36.2923 97.3679 36.2923Z" fill="black"/>
<path d="M123.576 18.8766C119.56 18.8766 117.282 22.4115 117.282 22.4115H117.197L117.542 19.2217H112.283C112.024 21.3776 111.549 24.6526 111.076 27.1102L106.938 48.878H112.887L114.524 40.0843H114.654C114.654 40.0843 115.874 40.8598 118.146 40.8598C125.128 40.8598 129.697 33.7048 129.697 26.462C129.697 22.4548 127.929 18.8766 123.576 18.8766ZM117.886 36.3775C116.342 36.3775 115.428 35.5155 115.428 35.5155L116.419 29.9548C117.11 26.2481 119.049 23.7905 121.119 23.7905C122.929 23.7905 123.489 25.4713 123.489 27.0669C123.489 30.9034 121.205 36.3775 117.886 36.3775Z" fill="black"/>
<path d="M138.19 10.3416C136.294 10.3416 134.785 11.8505 134.785 13.7897C134.785 15.5572 135.906 16.7643 137.587 16.7643H137.673C139.527 16.7643 141.121 15.5138 141.165 13.3161C141.165 11.592 140.001 10.3416 138.19 10.3416Z" fill="black"/>
<path d="M129.871 40.4294H135.819L139.872 19.3517H133.879L129.871 40.4294Z" fill="black"/>
<path d="M155.002 19.3085H150.863L151.078 18.3165C151.423 16.2906 152.631 14.4799 154.613 14.4799C155.672 14.4799 156.509 14.7817 156.509 14.7817L157.673 10.1263C157.673 10.1263 156.639 9.60938 154.44 9.60938C152.327 9.60938 150.217 10.2129 148.621 11.5919C146.595 13.3161 145.646 15.8156 145.173 18.3165L145.001 19.3085H142.241L141.379 23.792H144.139L140.992 40.4308H146.941L150.088 23.792H154.183L155.002 19.3085Z" fill="black"/>
<path d="M169.31 19.3517C169.31 19.3517 165.591 28.7206 163.921 33.8348H163.834C163.721 32.1878 162.369 19.3517 162.369 19.3517H156.118L159.697 38.7053C159.784 39.1357 159.741 39.3955 159.568 39.6972C158.877 41.033 157.714 42.3267 156.334 43.2754C155.214 44.0941 153.964 44.6111 152.973 44.9562L154.61 49.9999C155.818 49.7415 158.317 48.7495 160.429 46.7669C163.146 44.224 165.645 40.3008 168.231 34.9553L175.516 19.3503H169.31V19.3517Z" fill="black"/>
</svg>
