<svg width="28" height="28" viewBox="0 0 28 28" fill="none" xmlns="http://www.w3.org/2000/svg">
<path fill-rule="evenodd" clip-rule="evenodd" d="M0.155999 15.7627C0.0519995 15.0812 0 14.382 0 13.6841C0 6.13868 6.13868 0 13.6841 0C21.2295 0 27.3682 6.13868 27.3682 13.6841C27.3682 21.2295 21.2295 27.3682 13.6841 27.3682C9.4037 27.3682 5.45037 25.4209 2.83671 22.0286C2.50145 21.5935 2.58355 20.9668 3.01734 20.6329C3.45249 20.2962 4.07649 20.3797 4.41448 20.8135C6.64636 23.7159 10.0263 25.3785 13.6841 25.3785C20.132 25.3785 25.3785 20.1334 25.3785 13.6841C25.3785 7.23614 20.132 1.99103 13.6841 1.99103C7.23614 1.99103 1.98967 7.23614 1.98967 13.6841C1.98967 14.2821 2.03482 14.8801 2.12377 15.4616C2.20587 16.0035 1.83367 16.5112 1.29041 16.5947C0.744414 16.685 0.239471 16.306 0.155999 15.7627ZM17.5079 13.6852C17.5079 13.9575 17.3998 14.2189 17.2055 14.4118L12.4352 19.1615C12.0329 19.5625 11.3829 19.5611 10.9833 19.1588C10.5838 18.7565 10.5838 18.1079 10.9861 17.7083L15.027 13.6852L10.9861 9.66205C10.5838 9.26248 10.5838 8.61248 10.9833 8.21017C11.3829 7.80923 12.0329 7.80786 12.4352 8.20743L17.2055 12.9585C17.3998 13.1501 17.5079 13.4115 17.5079 13.6852Z" fill="white"/>
</svg>
