<svg width="20" height="18" viewBox="0 0 20 18" fill="none" xmlns="http://www.w3.org/2000/svg">
<path d="M1.22617 7.83904C1.22617 7.83904 10.0717 3.88771 13.1395 2.49634C14.3155 1.93984 18.3036 0.158893 18.3036 0.158893C18.3036 0.158893 20.1443 -0.620205 19.9909 1.27197C19.9398 2.05114 19.5307 4.7781 19.1217 7.72774C18.5081 11.9018 17.8434 16.4653 17.8434 16.4653C17.8434 16.4653 17.7412 17.7453 16.872 17.9679C16.0028 18.1905 14.5711 17.1888 14.3155 16.9662C14.1109 16.7993 10.4807 14.2948 9.15133 13.0704C8.79341 12.7365 8.38439 12.0687 9.20242 11.2896C11.0431 9.45301 13.2417 7.17124 14.5711 5.72427C15.1847 5.05639 15.7982 3.49812 13.2417 5.39029C9.61151 8.11733 6.0324 10.6774 6.0324 10.6774C6.0324 10.6774 5.21429 11.2339 3.68041 10.733C2.14645 10.2322 0.356899 9.56431 0.356899 9.56431C0.356899 9.56431 -0.870153 8.72952 1.22617 7.83904Z" fill="black" fill-opacity="0.95"/>
</svg>
