<svg width="36" height="36" viewBox="0 0 36 36" fill="none" xmlns="http://www.w3.org/2000/svg">
<path fill-rule="evenodd" clip-rule="evenodd" d="M15.2658 0.2052C16.1622 0.0684 17.082 0 18 0C27.9252 0 36 8.0748 36 18C36 27.9252 27.9252 36 18 36C8.0748 36 0 27.9252 0 18C0 12.3696 2.5614 7.1694 7.0236 3.7314C7.596 3.2904 8.4204 3.3984 8.8596 3.969C9.27843 4.51042 8.64637 4.99959 8.09385 5.4272C8.06224 5.45167 8.03088 5.47594 8 5.5C4.1822 8.4358 2 13.1886 2 18C2 26.4816 9.5166 34 18 34C26.4816 34 34 26.4816 34 18C34 9.5184 26.4816 2.6172 18 2.6172C17.2134 2.6172 16.4268 2.6766 15.6618 2.7936C14.949 2.9016 14.2812 2.412 14.1714 1.6974C14.0526 0.9792 14.5512 0.315 15.2658 0.2052ZM17.9986 23.0294C17.6404 23.0294 17.2966 22.8872 17.0428 22.6316L10.795 16.3568C10.2676 15.8276 10.2694 14.9726 10.7986 14.447C11.3278 13.9214 12.181 13.9214 12.7066 14.4506L17.9986 19.766L23.2906 14.4506C23.8162 13.9214 24.6712 13.9214 25.2004 14.447C25.7278 14.9726 25.7296 15.8276 25.204 16.3568L18.9544 22.6316C18.7024 22.8872 18.3586 23.0294 17.9986 23.0294Z" fill="black"/>
</svg>
