<svg width="21" height="21" viewBox="0 0 21 21" fill="none" xmlns="http://www.w3.org/2000/svg">
<path d="M0 21L1.50535 15.4027C0.291323 13.2223 -0.0943855 10.6779 0.419002 8.23645C0.93239 5.79502 2.31044 3.6203 4.30027 2.11136C6.2901 0.60242 8.75824 -0.139523 11.2518 0.0216769C13.7453 0.182877 16.097 1.23641 17.8753 2.98894C19.6536 4.74148 20.7392 7.07547 20.9329 9.56261C21.1266 12.0498 20.4155 14.5232 18.9299 16.5291C17.4444 18.5351 15.2841 19.9389 12.8455 20.4829C10.4069 21.027 7.8535 20.6749 5.65395 19.4912L0 21ZM5.92657 17.3967L6.27624 17.6038C7.86942 18.5465 9.73023 18.9366 11.5687 18.7133C13.4072 18.4901 15.12 17.6659 16.4403 16.3692C17.7606 15.0726 18.6142 13.3764 18.868 11.5449C19.1219 9.71334 18.7617 7.84943 17.8437 6.24359C16.9257 4.63774 15.5014 3.38018 13.7928 2.66686C12.0841 1.95354 10.1871 1.82455 8.39738 2.29997C6.60763 2.77539 5.02568 3.82853 3.89805 5.29527C2.77042 6.762 2.16045 8.55995 2.1632 10.4089C2.1617 11.942 2.58639 13.4454 3.39 14.7518L3.60928 15.1128L2.76771 18.2368L5.92657 17.3967Z" fill="white"/>
<path fill-rule="evenodd" clip-rule="evenodd" d="M14.4131 11.846C14.2081 11.681 13.9681 11.5648 13.7114 11.5063C13.4546 11.4479 13.1879 11.4487 12.9315 11.5088C12.5463 11.6685 12.2973 12.272 12.0484 12.5738C11.9959 12.6461 11.9188 12.6969 11.8315 12.7165C11.7442 12.7361 11.6528 12.7232 11.5743 12.6803C10.164 12.1288 8.98182 11.1175 8.21986 9.81064C8.15487 9.72909 8.12411 9.62554 8.13406 9.5218C8.14401 9.41806 8.19389 9.32222 8.2732 9.25446C8.55083 8.98008 8.75466 8.64023 8.86586 8.26636C8.89055 7.85396 8.79591 7.44318 8.59324 7.08299C8.43655 6.57803 8.13836 6.12839 7.73388 5.78721C7.52527 5.69354 7.29396 5.66213 7.06787 5.69678C6.84177 5.73143 6.63054 5.83065 6.45967 5.98247C6.16303 6.23798 5.92757 6.55667 5.77064 6.91507C5.61371 7.27347 5.53931 7.66244 5.55291 8.05335C5.55382 8.27287 5.58169 8.49145 5.63588 8.7042C5.7735 9.21536 5.98514 9.70371 6.2641 10.1538C6.46536 10.4986 6.68496 10.8324 6.92194 11.1538C7.69213 12.2093 8.66027 13.1055 9.77262 13.7927C10.3308 14.1418 10.9274 14.4257 11.5506 14.6388C12.198 14.9317 12.9127 15.0442 13.619 14.9642C14.0214 14.9034 14.4026 14.7448 14.7292 14.5023C15.0558 14.2598 15.3176 13.941 15.4918 13.5737C15.5941 13.3519 15.6251 13.1039 15.5807 12.8637C15.474 12.3726 14.8161 12.0827 14.4131 11.846Z" fill="white"/>
</svg>
