<svg width="1017" height="959" viewBox="0 0 1017 959" fill="none" xmlns="http://www.w3.org/2000/svg">
<path d="M479.941 883.827C518 847.752 540.119 868.175 578.177 832.099C616.235 796.024 594.116 775.601 632.163 739.536C670.211 703.471 692.34 723.883 730.399 687.808C768.457 651.732 746.338 631.31 784.396 595.234C822.454 559.159 844.573 579.582 882.642 543.496C920.712 507.41 898.582 486.998 936.64 450.922" stroke="black" stroke-opacity="0.05" stroke-width="1.4159" stroke-miterlimit="10"/>
<path d="M47.2891 477.699C85.3473 441.623 107.466 462.046 145.524 425.97C183.583 389.895 161.464 369.472 199.511 333.407C237.558 297.342 259.688 317.755 297.746 281.679C335.804 245.604 313.685 225.181 351.744 189.106C389.802 153.03 411.921 173.453 449.99 137.367C488.059 101.281 465.929 80.869 503.987 44.7935" stroke="black" stroke-opacity="0.05" stroke-width="1.4159" stroke-miterlimit="10"/>
<path d="M323.738 732.135C361.796 696.06 383.915 716.482 421.974 680.407C460.032 644.331 437.913 623.909 475.96 587.844C514.007 551.779 536.137 572.191 574.196 536.116C612.254 500.04 590.135 479.617 628.193 443.542C666.251 407.467 688.37 427.889 726.439 391.803C764.508 355.718 742.378 335.305 780.437 299.23" stroke="black" stroke-opacity="0.05" stroke-width="1.4159" stroke-miterlimit="10"/>
<path d="M183.434 602.765C221.492 566.69 243.611 587.113 281.669 551.037C319.727 514.962 297.608 494.539 335.655 458.474C373.703 422.409 395.833 442.821 433.891 406.746C471.949 370.67 449.83 350.248 487.888 314.172C525.946 278.097 548.065 298.52 586.135 262.434C624.204 226.348 602.074 205.936 640.132 169.86" stroke="black" stroke-opacity="0.05" stroke-width="1.4159" stroke-miterlimit="10"/>
<path d="M459.332 861.02C497.39 824.944 519.509 845.367 557.567 809.291C595.626 773.216 573.507 752.793 611.554 716.728C649.601 680.663 671.731 701.075 709.789 665C747.847 628.925 725.728 608.502 763.787 572.427C801.845 536.351 823.964 556.774 862.033 520.688C900.102 484.602 877.972 464.19 916.03 428.114" stroke="black" stroke-opacity="0.05" stroke-width="1.4159" stroke-miterlimit="10"/>
<path d="M114.191 544.3C152.25 508.225 174.369 528.647 212.427 492.572C250.485 456.496 228.366 436.074 266.413 400.009C304.461 363.944 326.59 384.356 364.649 348.28C402.707 312.205 380.588 291.782 418.646 255.707C456.704 219.631 478.823 240.054 516.892 203.968C554.962 167.883 532.832 147.47 570.89 111.395" stroke="black" stroke-opacity="0.05" stroke-width="1.4159" stroke-miterlimit="10"/>
<path d="M390.09 798.309C428.148 762.234 450.267 782.656 488.325 746.581C526.383 710.506 504.264 690.083 542.312 654.018C580.359 617.953 602.489 638.365 640.547 602.29C678.605 566.214 656.486 545.792 694.544 509.716C732.603 473.641 754.722 494.063 792.791 457.978C830.86 421.892 808.73 401.479 846.788 365.404" stroke="black" stroke-opacity="0.05" stroke-width="1.4159" stroke-miterlimit="10"/>
<path d="M250.332 669.367C288.39 633.291 310.509 653.714 348.567 617.639C386.626 581.563 364.507 561.14 402.554 525.075C440.601 489.01 462.731 509.423 500.789 473.347C538.847 437.272 516.728 416.849 554.787 380.774C592.845 344.698 614.964 365.121 653.033 329.035C691.102 292.949 668.972 272.537 707.03 236.462" stroke="black" stroke-opacity="0.05" stroke-width="1.4159" stroke-miterlimit="10"/>
<path d="M526.23 927.621C564.289 891.545 586.408 911.968 624.466 875.893C662.524 839.817 640.405 819.395 678.452 783.33C716.5 747.264 738.63 767.677 776.688 731.601C814.746 695.526 792.627 675.103 830.685 639.028C868.743 602.952 890.862 623.375 928.931 587.289C967.001 551.203 944.871 530.791 982.929 494.716" stroke="black" stroke-opacity="0.05" stroke-width="1.4159" stroke-miterlimit="10"/>
<path d="M38.043 465.905C76.1012 429.83 98.2202 450.253 136.278 414.177C174.337 378.102 152.218 357.679 190.265 321.614C228.312 285.549 250.442 305.961 288.5 269.886C326.558 233.81 304.439 213.388 342.498 177.312C380.556 141.237 402.675 161.66 440.744 125.574C478.813 89.488 456.683 69.0757 494.741 33.0003" stroke="black" stroke-opacity="0.05" stroke-width="1.4159" stroke-miterlimit="10"/>
<path d="M314.492 720.343C352.55 684.268 374.669 704.69 412.728 668.615C450.786 632.54 428.667 612.117 466.714 576.052C504.761 539.987 526.891 560.399 564.949 524.324C603.008 488.248 580.889 467.826 618.947 431.75C657.005 395.675 679.124 416.097 717.193 380.012C755.262 343.926 733.132 323.514 771.191 287.438" stroke="black" stroke-opacity="0.05" stroke-width="1.4159" stroke-miterlimit="10"/>
<path d="M174.184 590.971C212.242 554.895 234.361 575.318 272.419 539.242C310.477 503.167 288.358 482.744 326.405 446.679C364.453 410.614 386.583 431.027 424.641 394.951C462.699 358.876 440.58 338.453 478.638 302.378C516.696 266.302 538.815 286.725 576.885 250.639C614.954 214.553 592.824 194.141 630.882 158.066" stroke="black" stroke-opacity="0.05" stroke-width="1.4159" stroke-miterlimit="10"/>
<path d="M450.078 849.225C488.136 813.15 510.255 833.572 548.314 797.497C586.372 761.421 564.253 740.999 602.3 704.934C640.347 668.869 662.477 689.281 700.535 653.205C738.594 617.13 716.475 596.707 754.533 560.632C792.591 524.557 814.71 544.979 852.779 508.893C890.848 472.808 868.718 452.395 906.777 416.32" stroke="black" stroke-opacity="0.05" stroke-width="1.4159" stroke-miterlimit="10"/>
<path d="M104.945 532.507C143.004 496.431 165.122 516.854 203.181 480.779C241.239 444.703 219.12 424.28 257.167 388.215C295.214 352.15 317.344 372.563 355.403 336.487C393.461 300.412 371.342 279.989 409.4 243.914C447.458 207.838 469.577 228.261 507.646 192.175C545.715 156.089 523.585 135.677 561.644 99.6017" stroke="black" stroke-opacity="0.05" stroke-width="1.4159" stroke-miterlimit="10"/>
<path d="M380.84 786.516C418.898 750.44 441.017 770.863 479.075 734.788C517.133 698.712 495.014 678.29 533.062 642.224C571.109 606.159 593.239 626.572 631.297 590.496C669.355 554.421 647.236 533.998 685.294 497.923C723.353 461.847 745.472 482.27 783.541 446.184C821.61 410.098 799.48 389.686 837.538 353.611" stroke="black" stroke-opacity="0.05" stroke-width="1.4159" stroke-miterlimit="10"/>
<path d="M241.086 657.572C279.144 621.497 301.263 641.919 339.321 605.844C377.38 569.768 355.261 549.346 393.308 513.281C431.355 477.216 453.485 497.628 491.543 461.553C529.601 425.477 507.482 405.054 545.541 368.979C583.599 332.904 605.718 353.326 643.787 317.24C681.856 281.155 659.726 260.742 697.784 224.667" stroke="black" stroke-opacity="0.05" stroke-width="1.4159" stroke-miterlimit="10"/>
<path d="M516.984 915.828C555.043 879.752 577.162 900.175 615.22 864.1C653.278 828.024 631.159 807.601 669.206 771.536C707.253 735.471 729.383 755.884 767.442 719.808C805.5 683.733 783.381 663.31 821.439 627.235C859.497 591.159 881.616 611.582 919.685 575.496C957.754 539.41 935.625 518.998 973.683 482.923" stroke="black" stroke-opacity="0.05" stroke-width="1.4159" stroke-miterlimit="10"/>
<path d="M12.0586 444.118C50.1168 408.042 72.2358 428.465 110.294 392.39C148.352 356.314 126.233 335.892 164.28 299.827C202.328 263.762 224.458 284.174 262.516 248.098C300.574 212.023 278.455 191.6 316.513 155.525C354.571 119.449 376.69 139.872 414.76 103.786C452.829 67.7005 430.699 47.2882 468.757 11.2128" stroke="black" stroke-opacity="0.05" stroke-width="1.4159" stroke-miterlimit="10"/>
<path d="M288.508 698.556C326.566 662.48 348.685 682.903 386.743 646.828C424.801 610.752 402.682 590.33 440.73 554.264C478.777 518.199 500.907 538.612 538.965 502.536C577.023 466.461 554.904 446.038 592.962 409.963C631.021 373.887 653.14 394.31 691.209 358.224C729.278 322.138 707.148 301.726 745.206 265.651" stroke="black" stroke-opacity="0.05" stroke-width="1.4159" stroke-miterlimit="10"/>
<path d="M148.199 573.427C186.257 537.351 208.376 557.774 246.435 521.699C284.493 485.623 262.374 465.201 300.421 429.135C338.468 393.07 360.598 413.483 398.656 377.407C436.715 341.332 414.596 320.909 452.654 284.834C490.712 248.758 512.831 269.181 550.9 233.095C588.969 197.009 566.839 176.597 604.898 140.522" stroke="black" stroke-opacity="0.05" stroke-width="1.4159" stroke-miterlimit="10"/>
<path d="M424.098 827.436C462.156 791.361 484.275 811.783 522.333 775.708C560.391 739.633 538.272 719.21 576.32 683.145C614.367 647.08 636.497 667.492 674.555 631.417C712.613 595.341 690.494 574.919 728.552 538.843C766.61 502.768 788.729 523.19 826.799 487.105C864.868 451.019 842.738 430.606 880.796 394.531" stroke="black" stroke-opacity="0.05" stroke-width="1.4159" stroke-miterlimit="10"/>
<path d="M78.957 510.719C117.015 474.644 139.134 495.066 177.192 458.991C215.251 422.916 193.132 402.493 231.179 366.428C269.226 330.363 291.356 350.775 329.414 314.7C367.472 278.624 345.353 258.202 383.412 222.126C421.47 186.051 443.589 206.473 481.658 170.388C519.727 134.302 497.597 113.89 535.655 77.8141" stroke="black" stroke-opacity="0.05" stroke-width="1.4159" stroke-miterlimit="10"/>
<path d="M355.406 765.157C393.464 729.082 415.583 749.504 453.642 713.429C491.7 677.353 469.581 656.931 507.628 620.866C545.675 584.801 567.805 605.213 605.863 569.138C643.922 533.062 621.803 512.64 659.861 476.564C697.919 440.489 720.038 460.911 758.107 424.826C796.176 388.74 774.046 368.327 812.105 332.252" stroke="black" stroke-opacity="0.05" stroke-width="1.4159" stroke-miterlimit="10"/>
<path d="M215.102 635.785C253.16 599.709 275.279 620.132 313.337 584.056C351.395 547.981 329.276 527.558 367.323 491.493C405.371 455.428 427.501 475.841 465.559 439.765C503.617 403.69 481.498 383.267 519.556 347.192C557.614 311.116 579.733 331.539 617.803 295.453C655.872 259.367 633.742 238.955 671.8 202.879" stroke="black" stroke-opacity="0.05" stroke-width="1.4159" stroke-miterlimit="10"/>
<path d="M491 894.039C529.058 857.963 551.177 878.386 589.235 842.311C627.294 806.235 605.175 785.813 643.222 749.748C681.269 713.683 703.399 734.095 741.457 698.019C779.515 661.944 757.396 641.521 795.455 605.446C833.513 569.37 855.632 589.793 893.701 553.707C931.77 517.621 909.64 497.209 947.698 461.134" stroke="black" stroke-opacity="0.05" stroke-width="1.4159" stroke-miterlimit="10"/>
<path d="M58.3477 487.91C96.4059 451.835 118.525 472.257 156.583 436.182C194.641 400.106 172.522 379.684 210.57 343.619C248.617 307.554 270.747 327.966 308.805 291.89C346.863 255.815 324.744 235.392 362.802 199.317C400.86 163.242 422.979 183.664 461.049 147.578C499.118 111.493 476.988 91.0803 515.046 55.0049" stroke="black" stroke-opacity="0.05" stroke-width="1.4159" stroke-miterlimit="10"/>
<path d="M334.797 742.348C372.855 706.273 394.974 726.695 433.032 690.62C471.09 654.545 448.971 634.122 487.019 598.057C525.066 561.992 547.196 582.404 585.254 546.329C623.312 510.253 601.193 489.831 639.251 453.755C677.31 417.68 699.429 438.102 737.498 402.017C775.567 365.931 753.437 345.518 791.495 309.443" stroke="black" stroke-opacity="0.05" stroke-width="1.4159" stroke-miterlimit="10"/>
<path d="M194.492 612.975C232.55 576.9 254.669 597.323 292.728 561.247C330.786 525.172 308.667 504.749 346.714 468.684C384.761 432.619 406.891 453.031 444.949 416.956C483.008 380.88 460.889 360.458 498.947 324.382C537.005 288.307 559.124 308.73 597.193 272.644C635.262 236.558 613.132 216.146 651.191 180.07" stroke="black" stroke-opacity="0.05" stroke-width="1.4159" stroke-miterlimit="10"/>
<path d="M470.391 871.229C508.449 835.154 530.568 855.577 568.626 819.501C606.684 783.426 584.565 763.003 622.612 726.938C660.66 690.873 682.79 711.285 720.848 675.21C758.906 639.134 736.787 618.712 774.845 582.636C812.903 546.561 835.022 566.984 873.092 530.898C911.161 494.812 889.031 474.4 927.089 438.324" stroke="black" stroke-opacity="0.05" stroke-width="1.4159" stroke-miterlimit="10"/>
<path d="M125.25 554.511C163.308 518.436 185.427 538.859 223.485 502.783C261.544 466.708 239.425 446.285 277.472 410.22C315.519 374.155 337.649 394.567 375.707 358.492C413.765 322.416 391.646 301.994 429.705 265.918C467.763 229.843 489.882 250.266 527.951 214.18C566.02 178.094 543.89 157.682 581.948 121.606" stroke="black" stroke-opacity="0.05" stroke-width="1.4159" stroke-miterlimit="10"/>
<path d="M401.148 808.521C439.207 772.445 461.326 792.868 499.384 756.792C537.442 720.717 515.323 700.294 553.37 664.229C591.418 628.164 613.547 648.576 651.606 612.501C689.664 576.426 667.545 556.003 705.603 519.927C743.661 483.852 765.78 504.275 803.849 468.189C841.919 432.103 819.789 411.691 857.847 375.615" stroke="black" stroke-opacity="0.05" stroke-width="1.4159" stroke-miterlimit="10"/>
<path d="M261.395 679.577C299.453 643.501 321.572 663.924 359.63 627.848C397.688 591.773 375.569 571.35 413.616 535.285C451.664 499.22 473.794 519.632 511.852 483.557C549.91 447.482 527.791 427.059 565.849 390.984C603.907 354.908 626.026 375.331 664.096 339.245C702.165 303.159 680.035 282.747 718.093 246.671" stroke="black" stroke-opacity="0.05" stroke-width="1.4159" stroke-miterlimit="10"/>
<path d="M537.289 937.834C575.347 901.758 597.466 922.181 635.524 886.105C673.583 850.03 651.464 829.607 689.511 793.542C727.558 757.477 749.688 777.889 787.746 741.814C825.804 705.739 803.685 685.316 841.744 649.241C879.802 613.165 901.921 633.588 939.99 597.502C978.059 561.416 955.929 541.004 993.987 504.928" stroke="black" stroke-opacity="0.05" stroke-width="1.4159" stroke-miterlimit="10"/>
<path d="M204.043 625.575C242.101 589.499 264.22 609.922 302.278 573.846C340.337 537.771 318.218 517.348 356.265 481.283C394.312 445.218 416.442 465.631 454.5 429.555C492.558 393.48 470.439 373.057 508.498 336.982C546.556 300.906 568.675 321.329 606.744 285.243C644.813 249.157 622.683 228.745 660.741 192.669" stroke="black" stroke-opacity="0.05" stroke-width="1.4159" stroke-miterlimit="10"/>
<path d="M1 433.905C39.0582 397.83 61.1772 418.252 99.2354 382.177C137.294 346.102 115.175 325.679 153.222 289.614C191.269 253.549 213.399 273.961 251.457 237.886C289.515 201.81 267.396 181.388 305.455 145.312C343.513 109.237 365.632 129.659 403.701 93.5736C441.77 57.4878 419.64 37.0755 457.698 1.0001" stroke="black" stroke-opacity="0.05" stroke-width="1.4159" stroke-miterlimit="10"/>
<path d="M277.449 688.343C315.507 652.268 337.626 672.69 375.685 636.615C413.743 600.539 391.624 580.117 429.671 544.052C467.718 507.987 489.848 528.399 527.906 492.324C565.965 456.248 543.846 435.825 581.904 399.75C619.962 363.675 642.081 384.097 680.15 348.011C718.219 311.926 696.089 291.513 734.148 255.438" stroke="black" stroke-opacity="0.05" stroke-width="1.4159" stroke-miterlimit="10"/>
<path d="M137.141 563.217C175.199 527.141 197.318 547.564 235.376 511.489C273.434 475.413 251.315 454.991 289.362 418.926C327.41 382.86 349.54 403.273 387.598 367.197C425.656 331.122 403.537 310.699 441.595 274.624C479.653 238.548 501.772 258.971 539.842 222.885C577.911 186.799 555.781 166.387 593.839 130.312" stroke="black" stroke-opacity="0.05" stroke-width="1.4159" stroke-miterlimit="10"/>
<path d="M413.035 817.226C451.093 781.151 473.212 801.573 511.271 765.498C549.329 729.422 527.21 709 565.257 672.935C603.304 636.87 625.434 657.282 663.492 621.207C701.551 585.131 679.432 564.708 717.49 528.633C755.548 492.558 777.667 512.98 815.736 476.894C853.805 440.809 831.675 420.396 869.734 384.321" stroke="black" stroke-opacity="0.05" stroke-width="1.4159" stroke-miterlimit="10"/>
<path d="M67.8984 500.507C105.957 464.431 128.076 484.854 166.134 448.778C204.192 412.703 182.073 392.28 220.12 356.215C258.168 320.15 280.297 340.562 318.356 304.487C356.414 268.412 334.295 247.989 372.353 211.914C410.411 175.838 432.53 196.261 470.599 160.175C508.669 124.089 486.539 103.677 524.597 67.6014" stroke="black" stroke-opacity="0.05" stroke-width="1.4159" stroke-miterlimit="10"/>
<path d="M344.348 754.944C382.406 718.869 404.525 739.292 442.583 703.216C480.641 667.141 458.522 646.718 496.57 610.653C534.617 574.588 556.747 595 594.805 558.925C632.863 522.849 610.744 502.427 648.802 466.351C686.86 430.276 708.979 450.699 747.049 414.613C785.118 378.527 762.988 358.115 801.046 322.039" stroke="black" stroke-opacity="0.05" stroke-width="1.4159" stroke-miterlimit="10"/>
<path d="M26.9844 455.693C65.0426 419.617 87.1616 440.04 125.22 403.964C163.278 367.889 141.159 347.466 179.206 311.401C217.253 275.336 239.383 295.749 277.442 259.673C315.5 223.598 293.381 203.175 331.439 167.1C369.497 131.024 391.616 151.447 429.685 115.361C467.754 79.2753 445.625 58.863 483.683 22.7875" stroke="black" stroke-opacity="0.05" stroke-width="1.4159" stroke-miterlimit="10"/>
<path d="M303.434 710.13C341.492 674.055 363.611 694.478 401.669 658.402C439.727 622.327 417.608 601.904 455.655 565.839C493.703 529.774 515.833 550.186 553.891 514.111C591.949 478.036 569.83 457.613 607.888 421.537C645.946 385.462 668.065 405.885 706.135 369.799C744.204 333.713 722.074 313.301 760.132 277.225" stroke="black" stroke-opacity="0.05" stroke-width="1.4159" stroke-miterlimit="10"/>
<path d="M163.125 580.759C201.183 544.684 223.302 565.107 261.36 529.031C299.419 492.956 277.3 472.533 315.347 436.468C353.394 400.403 375.524 420.815 413.582 384.74C451.64 348.664 429.521 328.242 467.58 292.166C505.638 256.091 527.757 276.514 565.826 240.428C603.895 204.342 581.765 183.93 619.823 147.854" stroke="black" stroke-opacity="0.05" stroke-width="1.4159" stroke-miterlimit="10"/>
<path d="M439.023 839.014C477.082 802.938 499.201 823.361 537.259 787.286C575.317 751.21 553.198 730.788 591.245 694.723C629.293 658.657 651.422 679.07 689.481 642.994C727.539 606.919 705.42 586.496 743.478 550.421C781.536 514.345 803.655 534.768 841.724 498.682C879.794 462.596 857.664 442.184 895.722 406.109" stroke="black" stroke-opacity="0.05" stroke-width="1.4159" stroke-miterlimit="10"/>
<path d="M93.8867 522.294C131.945 486.219 154.064 506.641 192.122 470.566C230.18 434.49 208.061 414.068 246.109 378.003C284.156 341.938 306.286 362.35 344.344 326.274C382.402 290.199 360.283 269.776 398.341 233.701C436.4 197.626 458.519 218.048 496.588 181.962C534.657 145.877 512.527 125.464 550.585 89.3888" stroke="black" stroke-opacity="0.05" stroke-width="1.4159" stroke-miterlimit="10"/>
<path d="M369.781 776.303C407.839 740.228 429.958 760.651 468.017 724.575C506.075 688.5 483.956 668.077 522.003 632.012C560.05 595.947 582.18 616.359 620.238 580.284C658.297 544.208 636.178 523.786 674.236 487.71C712.294 451.635 734.413 472.058 772.482 435.972C810.551 399.886 788.421 379.474 826.48 343.398" stroke="black" stroke-opacity="0.05" stroke-width="1.4159" stroke-miterlimit="10"/>
<path d="M230.027 647.361C268.086 611.285 290.205 631.708 328.263 595.633C366.321 559.557 344.202 539.134 382.249 503.069C420.296 467.004 442.426 487.417 480.485 451.341C518.543 415.266 496.424 394.843 534.482 358.768C572.54 322.692 594.659 343.115 632.728 307.029C670.797 270.943 648.668 250.531 686.726 214.456" stroke="black" stroke-opacity="0.05" stroke-width="1.4159" stroke-miterlimit="10"/>
<path d="M505.922 905.615C543.98 869.54 566.099 889.962 604.157 853.887C642.215 817.811 620.096 797.389 658.144 761.324C696.191 725.259 718.321 745.671 756.379 709.595C794.437 673.52 772.318 653.097 810.376 617.022C848.435 580.947 870.554 601.369 908.623 565.283C946.692 529.198 924.562 508.785 962.62 472.71" stroke="black" stroke-opacity="0.05" stroke-width="1.4159" stroke-miterlimit="10"/>
</svg>
