<svg width="150" height="150" viewBox="0 0 150 150" fill="none" xmlns="http://www.w3.org/2000/svg">
<rect width="150" height="150" rx="20" fill="#0B84EE"/>
<path d="M91.3676 70.2742C86.2495 64.1231 83.6904 61.0475 80.7486 61.5212C77.8068 61.995 76.4306 65.7042 73.6781 73.1228L72.966 75.0421C72.1839 77.1502 71.7928 78.2043 71.0319 78.9807C70.2709 79.7572 69.2263 80.1681 67.137 80.99L65.2349 81.7383C57.8827 84.6307 54.2066 86.0769 53.7874 89.0328C53.3681 91.9887 56.4834 94.4967 62.7139 99.5129L64.3258 100.811C66.0963 102.236 66.9815 102.949 67.494 103.924C68.0064 104.9 68.088 106.028 68.2512 108.284L68.3997 110.338C68.974 118.276 69.2611 122.246 71.9438 123.599C74.6264 124.952 77.928 122.793 84.5311 118.474L86.2394 117.357C88.1158 116.13 89.054 115.516 90.1316 115.343C91.2093 115.169 92.3043 115.455 94.4944 116.028L96.4884 116.549C104.195 118.563 108.049 119.57 110.126 117.45C112.203 115.331 111.129 111.488 108.979 103.803L108.423 101.815C107.812 99.6309 107.507 98.539 107.66 97.4562C107.814 96.3734 108.409 95.4223 109.6 93.5201L110.683 91.7883C114.872 85.0943 116.967 81.7473 115.568 79.0842C114.169 76.421 110.203 76.2054 102.272 75.7743L100.22 75.6627C97.9657 75.5402 96.8388 75.4789 95.8561 74.9832C94.8734 74.4876 94.1462 73.6136 92.6917 71.8656L91.3676 70.2742Z" fill="white"/>
<path d="M89.4292 41.5029L90.3786 44.2219C91.4215 47.2083 91.943 48.7016 92.9575 49.8016C93.9721 50.9016 95.3649 51.4838 98.1506 52.6482L100.687 53.7083C110.49 57.8057 115.391 59.8545 115.95 64.0421C116.183 65.7851 115.599 67.4183 114.239 69.2435C113.779 69.1186 113.337 69.0167 112.921 68.9318C110.191 68.3743 106.72 68.1865 103.181 67.995L100.641 67.8569C100.152 67.8304 99.7724 67.8096 99.4469 67.7884C99.2314 67.535 98.983 67.2367 98.663 66.8521L97.0257 64.8842C94.7413 62.1374 92.5061 59.4499 90.4275 57.5842C88.2108 55.5945 84.5054 52.9994 79.5175 53.8026C74.4765 54.6144 71.7876 58.2985 70.3369 60.9281C68.9928 63.3644 67.784 66.6249 66.5602 69.9261L65.6753 72.3113C65.5258 72.7143 65.4059 73.0372 65.3003 73.3149C65.0237 73.4263 64.7019 73.553 64.3 73.7111L61.9372 74.6406C58.6645 75.9271 55.4355 77.1964 53.0313 78.5859C50.4441 80.0812 46.806 82.8428 46.0846 87.929C45.37 92.9668 48.0412 96.6445 50.0632 98.8253C51.5702 100.451 53.5949 102.165 55.7567 103.923C47.6198 106.14 43.2916 106.967 40.8317 104.3C38.062 101.297 39.4951 95.8537 42.3611 84.9665L43.1026 82.1499C43.917 79.0561 44.3243 77.5092 44.1195 75.9752C43.9147 74.4413 43.1211 73.0939 41.5339 70.3991L40.089 67.9457C34.5036 58.4625 31.711 53.721 33.5761 49.9482C35.4412 46.1754 40.729 45.87 51.3044 45.2592L54.0405 45.1011C57.0457 44.9275 58.5483 44.8407 59.8586 44.1385C61.1688 43.4363 62.1385 42.1982 64.0777 39.7219L65.8432 37.4675C72.6674 28.7533 76.0795 24.3963 80.0019 25.0674C83.9242 25.7385 85.7592 30.9933 89.4292 41.5029Z" fill="white"/>
</svg>
