<svg width="150" height="150" viewBox="0 0 150 150" fill="none" xmlns="http://www.w3.org/2000/svg">
<rect width="150" height="150" rx="20" fill="#0B84EE"/>
<path d="M49.2791 45.8501C50.4087 46.9819 50.4069 48.8151 49.2751 49.9447C42.7949 56.412 38.7907 65.3458 38.7907 75.2203C38.7907 85.2102 42.8891 94.2377 49.5036 100.722C50.6455 101.841 50.6637 103.675 49.5443 104.816C48.4249 105.958 46.5918 105.977 45.4499 104.857C37.7702 97.3286 33 86.8289 33 75.2203C33 63.7462 37.6604 53.3551 45.1845 45.846C46.3163 44.7164 48.1496 44.7182 49.2791 45.8501Z" fill="white"/>
<path d="M100.042 46.1295C101.184 45.0101 103.017 45.0283 104.137 46.1702C111.472 53.6528 116 63.9107 116 75.2203C116 86.6644 111.364 97.0313 103.874 104.536C102.745 105.668 100.912 105.669 99.7797 104.54C98.6479 103.41 98.646 101.577 99.7756 100.445C106.226 93.982 110.209 85.0691 110.209 75.2203C110.209 65.4869 106.319 56.668 100.002 50.2239C98.8823 49.0821 98.9005 47.2489 100.042 46.1295Z" fill="white"/>
<path d="M60.2519 57.8002C61.3445 58.9678 61.2838 60.8 60.1162 61.8926C56.453 65.3207 54.2326 70.0096 54.2326 75.1517C54.2326 80.3536 56.5052 85.0926 60.2455 88.5307C61.4227 89.6128 61.4998 91.4445 60.4177 92.6217C59.3355 93.799 57.5039 93.8761 56.3266 92.7939C51.4904 88.3483 48.4419 82.1012 48.4419 75.1517C48.4419 68.283 51.4201 62.0997 56.1595 57.6645C57.3271 56.5719 59.1593 56.6327 60.2519 57.8002Z" fill="white"/>
<path d="M88.9492 57.947C90.0545 56.7915 91.8873 56.7507 93.0429 57.856C97.6646 62.2767 100.558 68.3818 100.558 75.1517C100.558 82.0024 97.5954 88.1715 92.8775 92.6042C91.7122 93.6991 89.8798 93.642 88.7849 92.4766C87.6899 91.3112 87.7471 89.4789 88.9124 88.3839C92.5586 84.9583 94.7674 80.2805 94.7674 75.1517C94.7674 70.0827 92.61 65.4551 89.0402 62.0407C87.8847 60.9354 87.8439 59.1026 88.9492 57.947Z" fill="white"/>
<path d="M74.5 82.9414C78.7642 82.9414 82.2209 79.4846 82.2209 75.2204C82.2209 70.9563 78.7642 67.4995 74.5 67.4995C70.2358 67.4995 66.7791 70.9563 66.7791 75.2204C66.7791 79.4846 70.2358 82.9414 74.5 82.9414Z" fill="white"/>
</svg>
