<svg width="150" height="150" viewBox="0 0 150 150" fill="none" xmlns="http://www.w3.org/2000/svg">
<rect width="150" height="150" rx="55" fill="#0B84EE"/>
<path d="M92.5293 52.0259C92.5293 61.9813 84.4588 70.0518 74.5034 70.0518C64.548 70.0518 56.4775 61.9813 56.4775 52.0259C56.4775 42.0705 64.548 34 74.5034 34C84.4588 34 92.5293 42.0705 92.5293 52.0259Z" fill="white"/>
<path d="M105.396 98.3814C105.396 108.337 91.5607 116.407 74.4943 116.407C57.4279 116.407 43.5928 108.337 43.5928 98.3814C43.5928 88.4259 57.4279 80.3555 74.4943 80.3555C91.5607 80.3555 105.396 88.4259 105.396 98.3814Z" fill="white"/>
<path d="M49.3798 39.1484C50.2938 39.1484 51.1861 39.2381 52.0477 39.4088C49.9487 43.1371 48.7513 47.4407 48.7513 52.0241C48.7513 56.4958 49.8911 60.7013 51.896 64.3659C51.0815 64.5177 50.2403 64.5972 49.3798 64.5972C42.0953 64.5972 36.1899 58.9003 36.1899 51.8728C36.1899 44.8453 42.0953 39.1484 49.3798 39.1484Z" fill="white"/>
<path d="M40.7547 111.18C37.8297 107.683 35.8756 103.393 35.8756 98.3763C35.8756 93.5133 37.7121 89.3324 40.4891 85.8959C30.6795 86.6568 23 92.022 23 98.5277C23 105.094 30.8145 110.499 40.7547 111.18Z" fill="white"/>
<path d="M100.252 52.0241C100.252 56.4958 99.1117 60.7013 97.1068 64.3659C97.9213 64.5177 98.7625 64.5972 99.6229 64.5972C106.908 64.5972 112.813 58.9003 112.813 51.8728C112.813 44.8453 106.908 39.1484 99.6229 39.1484C98.709 39.1484 97.8167 39.2381 96.9551 39.4088C99.0541 43.1371 100.252 47.4407 100.252 52.0241Z" fill="white"/>
<path d="M108.248 111.18C118.188 110.499 126.003 105.094 126.003 98.5277C126.003 92.022 118.323 86.6568 108.514 85.8959C111.291 89.3324 113.127 93.5133 113.127 98.3763C113.127 103.393 111.173 107.683 108.248 111.18Z" fill="white"/>
</svg>
