<svg width="150" height="150" viewBox="0 0 150 150" fill="none" xmlns="http://www.w3.org/2000/svg">
<rect width="150" height="150" rx="55" fill="#0B84EE"/>
<path fill-rule="evenodd" clip-rule="evenodd" d="M44.4534 40.2869C40.4929 43.5738 39.4497 49.1375 37.3633 60.2649L33.7982 79.2789C30.8643 94.926 29.3974 102.75 33.6742 107.903C37.951 113.056 45.9109 113.056 61.8307 113.056H88.1693C104.089 113.056 112.049 113.056 116.326 107.903C120.603 102.75 119.136 94.926 116.202 79.2789L112.637 60.2649C110.55 49.1375 109.507 43.5738 105.547 40.2869C101.586 37 95.9255 37 84.6042 37H65.3958C54.0745 37 48.4139 37 44.4534 40.2869ZM64.9142 54.8259C66.3841 58.9848 70.3506 61.9559 75.0019 61.9559C79.6532 61.9559 83.6197 58.9848 85.0896 54.8259C85.7458 52.9695 87.7826 51.9965 89.639 52.6527C91.4954 53.3088 92.4684 55.3457 91.8123 57.2021C89.3669 64.1207 82.7688 69.0861 75.0019 69.0861C67.2349 69.0861 60.6369 64.1207 58.1915 57.2021C57.5353 55.3457 58.5083 53.3088 60.3648 52.6527C62.2212 51.9965 64.258 52.9695 64.9142 54.8259Z" fill="url(#paint0_linear_1155_10641)" fill-opacity="0.95"/>
<defs>
<linearGradient id="paint0_linear_1155_10641" x1="75" y1="37" x2="75" y2="182.5" gradientUnits="userSpaceOnUse">
<stop stop-color="white"/>
<stop offset="1" stop-color="white" stop-opacity="0.85"/>
</linearGradient>
</defs>
</svg>
