<svg width="37" height="37" viewBox="0 0 37 37" fill="none" xmlns="http://www.w3.org/2000/svg">
<g clip-path="url(#clip0_1404_11539)">
<g clip-path="url(#clip1_1404_11539)">
<g clip-path="url(#clip2_1404_11539)">
<path d="M9.35156 27.0095L10.6173 22.303C9.59652 20.4695 9.27219 18.3301 9.70388 16.2772C10.1356 14.2243 11.2943 12.3957 12.9675 11.1269C14.6407 9.8581 16.7161 9.23424 18.8127 9.36979C20.9095 9.50534 22.887 10.3912 24.3822 11.8649C25.8775 13.3384 26.7904 15.301 26.9533 17.3923C27.1162 19.4836 26.5181 21.5634 25.2691 23.2502C24.0199 24.9368 22.2033 26.1172 20.1529 26.5747C18.1023 27.0322 15.9553 26.7361 14.1057 25.7408L9.35156 27.0095ZM14.335 23.9795L14.629 24.1538C15.9687 24.9464 17.5334 25.2746 19.0792 25.0867C20.6251 24.8989 22.0654 24.2059 23.1756 23.1157C24.2858 22.0254 25.0035 20.5991 25.2169 19.0591C25.4304 17.5191 25.1276 15.9517 24.3556 14.6015C23.5838 13.2512 22.3861 12.1938 20.9494 11.594C19.5126 10.9942 17.9175 10.8857 16.4126 11.2855C14.9077 11.6853 13.5775 12.5708 12.6293 13.8041C11.6811 15.0374 11.1682 16.5492 11.1705 18.1039C11.1693 19.393 11.5264 20.6572 12.2021 21.7557L12.3864 22.0591L11.6788 24.6861L14.335 23.9795Z" fill="white"/>
<path fill-rule="evenodd" clip-rule="evenodd" d="M21.4711 19.3149C21.2987 19.1761 21.0969 19.0785 20.881 19.0293C20.6651 18.9801 20.4408 18.9808 20.2252 19.0313C19.9014 19.1657 19.6921 19.6731 19.4827 19.9269C19.4385 19.9877 19.3737 20.0304 19.3003 20.0468C19.227 20.0633 19.15 20.0525 19.0841 20.0164C17.8982 19.5527 16.9042 18.7024 16.2635 17.6035C16.2088 17.5348 16.1829 17.4478 16.1913 17.3606C16.1996 17.2733 16.2416 17.1928 16.3082 17.1358C16.5418 16.9051 16.7131 16.6193 16.8066 16.3049C16.8273 15.9582 16.7478 15.6128 16.5774 15.3099C16.4456 14.8853 16.1949 14.5072 15.8547 14.2204C15.6793 14.1415 15.4849 14.1152 15.2947 14.1443C15.1047 14.1735 14.927 14.2568 14.7833 14.3845C14.5339 14.5994 14.3359 14.8674 14.204 15.1687C14.072 15.4701 14.0094 15.7971 14.0209 16.1258C14.0217 16.3104 14.0451 16.4942 14.0907 16.6731C14.2063 17.103 14.3843 17.5135 14.6189 17.892C14.7881 18.182 14.9728 18.4626 15.172 18.7328C15.8197 19.6204 16.6338 20.3739 17.5691 20.9517C18.0385 21.2454 18.5401 21.4841 19.0641 21.6632C19.6084 21.9095 20.2095 22.0041 20.8034 21.9369C21.1417 21.8856 21.4623 21.7523 21.7369 21.5485C22.0115 21.3445 22.2317 21.0764 22.3781 20.7677C22.4642 20.5811 22.4902 20.3725 22.4528 20.1707C22.3631 19.7576 21.81 19.5139 21.4711 19.3149Z" fill="white"/>
<path d="M18.1239 35.3728C27.6502 35.3728 35.3728 27.6502 35.3728 18.1239C35.3728 8.59758 27.6502 0.875 18.1239 0.875C8.59758 0.875 0.875 8.59758 0.875 18.1239C0.875 27.6502 8.59758 35.3728 18.1239 35.3728Z" stroke="white" stroke-width="1.75412"/>
</g>
</g>
</g>
<defs>
<clipPath id="clip0_1404_11539">
<rect width="36.2519" height="36.2519" fill="white"/>
</clipPath>
<clipPath id="clip1_1404_11539">
<rect width="36.2519" height="36.2519" fill="white"/>
</clipPath>
<clipPath id="clip2_1404_11539">
<rect width="36.2519" height="36.2519" fill="white"/>
</clipPath>
</defs>
</svg>
