<svg width="37" height="37" viewBox="0 0 37 37" fill="none" xmlns="http://www.w3.org/2000/svg">
<g clip-path="url(#clip0_1404_11524)">
<g clip-path="url(#clip1_1404_11524)">
<g clip-path="url(#clip2_1404_11524)">
<path d="M15.2026 18.13C15.2026 16.514 16.5119 15.2036 18.1274 15.2036C19.743 15.2036 21.053 16.514 21.053 18.13C21.053 19.746 19.743 21.0564 18.1274 21.0564C16.5119 21.0564 15.2026 19.746 15.2026 18.13ZM13.6211 18.13C13.6211 20.6196 15.6386 22.6376 18.1274 22.6376C20.6163 22.6376 22.6338 20.6196 22.6338 18.13C22.6338 15.6404 20.6163 13.6224 18.1274 13.6224C15.6386 13.6224 13.6211 15.6404 13.6211 18.13ZM21.7591 13.4436C21.7589 13.652 21.8207 13.8557 21.9363 14.029C22.0519 14.2022 22.2163 14.3374 22.4088 14.4171C22.6012 14.4969 22.8129 14.5179 23.0172 14.4773C23.2215 14.4368 23.4092 14.3365 23.5565 14.1892C23.7038 14.042 23.8042 13.8543 23.8449 13.65C23.8856 13.4457 23.8648 13.2338 23.7853 13.0413C23.7057 12.8488 23.5707 12.6843 23.3975 12.5684C23.2245 12.4526 23.0209 12.3908 22.8126 12.3906C22.5334 12.3908 22.2652 12.5017 22.0678 12.6991C21.8703 12.8966 21.7593 13.1643 21.7591 13.4436ZM14.582 25.2754C13.7263 25.2364 13.2613 25.0939 12.9523 24.9734C12.5425 24.8138 12.2502 24.6238 11.9429 24.3168C11.6355 24.0097 11.4452 23.7176 11.2864 23.3077C11.1659 22.9988 11.0234 22.5334 10.9845 21.6776C10.942 20.7523 10.9335 20.4743 10.9335 18.13C10.9335 15.7858 10.9427 15.5087 10.9845 14.5825C11.0235 13.7267 11.167 13.2622 11.2864 12.9523C11.4459 12.5424 11.6359 12.2501 11.9429 11.9426C12.2497 11.6351 12.5418 11.4448 12.9523 11.286C13.2612 11.1655 13.7263 11.0229 14.582 10.984C15.507 10.9414 15.7849 10.9329 18.1274 10.9329C20.47 10.9329 20.7481 10.9421 21.6739 10.984C22.5296 11.023 22.9938 11.1666 23.3036 11.286C23.7134 11.4448 24.0057 11.6356 24.3131 11.9426C24.6205 12.2496 24.8101 12.5424 24.9696 12.9523C25.09 13.2613 25.2326 13.7267 25.2714 14.5825C25.314 15.5087 25.3225 15.7858 25.3225 18.13C25.3225 20.4743 25.314 20.7515 25.2714 21.6776C25.2325 22.5334 25.0892 22.9986 24.9696 23.3077C24.8101 23.7176 24.62 24.0101 24.3131 24.3168C24.0062 24.6235 23.7134 24.8138 23.3036 24.9734C22.9948 25.0939 22.5296 25.2364 21.6739 25.2754C20.7489 25.3179 20.4711 25.3265 18.1274 25.3265C15.7838 25.3265 15.5068 25.3179 14.582 25.2754ZM14.5093 9.40472C13.575 9.44728 12.9366 9.59547 12.3792 9.81246C11.8018 10.0366 11.313 10.3372 10.8246 10.825C10.3361 11.3128 10.0364 11.8025 9.81234 12.38C9.5954 12.938 9.44726 13.5763 9.40471 14.5108C9.36147 15.4468 9.35156 15.746 9.35156 18.13C9.35156 20.5139 9.36147 20.8131 9.40471 21.7491C9.44726 22.6837 9.5954 23.3219 9.81234 23.8799C10.0364 24.4571 10.3362 24.9474 10.8246 25.435C11.3129 25.9225 11.8018 26.2227 12.3792 26.4475C12.9377 26.6645 13.575 26.8127 14.5093 26.8553C15.4455 26.8978 15.7442 26.9083 18.1274 26.9083C20.5107 26.9083 20.8098 26.8985 21.7456 26.8553C22.6799 26.8127 23.3179 26.6645 23.8757 26.4475C24.4527 26.2227 24.9419 25.9228 25.4303 25.435C25.9188 24.9471 26.2179 24.4571 26.4426 23.8799C26.6595 23.3219 26.8084 22.6836 26.8502 21.7491C26.8927 20.8124 26.9026 20.5139 26.9026 18.13C26.9026 15.746 26.8927 15.4468 26.8502 14.5108C26.8077 13.5762 26.6595 12.9377 26.4426 12.38C26.2179 11.8029 25.918 11.3136 25.4303 10.825C24.9427 10.3364 24.4527 10.0366 23.8764 9.81246C23.3179 9.59547 22.6799 9.44658 21.7463 9.40472C20.8105 9.36217 20.5114 9.35156 18.1281 9.35156C15.7449 9.35156 15.4455 9.36147 14.5093 9.40472Z" fill="white"/>
<path d="M18.1239 35.3728C27.6502 35.3728 35.3728 27.6502 35.3728 18.1239C35.3728 8.59758 27.6502 0.875 18.1239 0.875C8.59758 0.875 0.875 8.59758 0.875 18.1239C0.875 27.6502 8.59758 35.3728 18.1239 35.3728Z" stroke="white" stroke-width="1.75412"/>
</g>
</g>
</g>
<defs>
<clipPath id="clip0_1404_11524">
<rect width="36.2519" height="36.2519" fill="white"/>
</clipPath>
<clipPath id="clip1_1404_11524">
<rect width="36.2519" height="36.2519" fill="white"/>
</clipPath>
<clipPath id="clip2_1404_11524">
<rect width="36.2519" height="36.2519" fill="white"/>
</clipPath>
</defs>
</svg>
