<svg width="37" height="37" viewBox="0 0 37 37" fill="none" xmlns="http://www.w3.org/2000/svg">
<g clip-path="url(#clip0_1404_11529)">
<g clip-path="url(#clip1_1404_11529)">
<g clip-path="url(#clip2_1404_11529)">
<path d="M18.1239 35.3728C27.6502 35.3728 35.3728 27.6502 35.3728 18.1239C35.3728 8.59758 27.6502 0.875 18.1239 0.875C8.59758 0.875 0.875 8.59758 0.875 18.1239C0.875 27.6502 8.59758 35.3728 18.1239 35.3728Z" stroke="white" stroke-width="1.75412"/>
<path d="M26.3648 13.6606C26.1794 12.9635 25.6304 12.4127 24.9322 12.2241C24.6078 12.1372 24.0236 12.0692 23.3158 12.0175C22.6126 11.9663 21.8013 11.932 21.0312 11.9091C20.2614 11.8863 19.534 11.8748 18.999 11.8691C18.7314 11.8662 18.5122 11.8648 18.3598 11.8641L18.1838 11.8635L18.1377 11.8634H18.126H18.1231H18.1219H18.1183H18.1066L18.0607 11.8635L17.8847 11.8641C17.7324 11.8648 17.5131 11.8662 17.2458 11.8691C16.711 11.8748 15.9839 11.8863 15.2142 11.9091C14.4442 11.932 13.6331 11.9663 12.9297 12.0175C12.2218 12.0692 11.6372 12.1372 11.3121 12.2241C10.6172 12.4099 10.0677 12.9602 9.87946 13.6607C9.70178 14.3272 9.61081 15.369 9.56509 16.2564C9.54235 16.6976 9.53097 17.0964 9.52529 17.3849C9.52245 17.5291 9.52103 17.6455 9.52032 17.726L9.5197 17.8184L9.51962 17.8422V17.8482V17.8497V17.852V17.858L9.5197 17.8819L9.52032 17.9743C9.52103 18.0547 9.52245 18.1712 9.52529 18.3154C9.53097 18.6039 9.54235 19.0026 9.56509 19.4439C9.61081 20.3313 9.70179 21.3733 9.8795 22.0396C10.0649 22.7368 10.6139 23.2875 11.3123 23.4761C11.6374 23.5631 12.2219 23.6311 12.9297 23.6828C13.6331 23.734 14.4442 23.7682 15.2142 23.7912C15.9839 23.8141 16.711 23.8254 17.2458 23.8312C17.5131 23.8341 17.7324 23.8355 17.8847 23.8362L18.0607 23.8368L18.1066 23.8369H18.1183H18.1212H18.1224H18.126H18.1377L18.1838 23.8368L18.3598 23.8362C18.5122 23.8355 18.7314 23.8341 18.999 23.8312C19.534 23.8254 20.2614 23.8141 21.0312 23.7912C21.8013 23.7682 22.6126 23.734 23.3158 23.6828C24.0236 23.6311 24.6079 23.5631 24.9322 23.4761C25.627 23.2903 26.1765 22.7402 26.3648 22.0396V13.6606ZM26.3648 13.6606C26.5426 14.327 26.6335 15.369 26.6793 16.2564C26.7021 16.6976 26.7134 17.0964 26.719 17.3849C26.7219 17.5291 26.7233 17.6455 26.724 17.726L26.7246 17.8184L26.7247 17.8422V17.8482V17.8497M26.3648 13.6606L26.7247 17.8497ZM26.7247 17.8497V17.852ZM26.7247 17.8497V17.852ZM26.7247 17.852V17.858ZM26.7247 17.852V17.858ZM26.7247 17.858L26.7246 17.8819ZM26.7247 17.858L26.7246 17.8819ZM26.7246 17.8819L26.724 17.9743ZM26.7246 17.8819L26.724 17.9743ZM26.724 17.9743C26.7233 18.0547 26.7219 18.1712 26.719 18.3154ZM26.724 17.9743L26.719 18.3154ZM26.719 18.3154C26.7134 18.6039 26.7021 19.0026 26.6793 19.4439ZM26.719 18.3154L26.6793 19.4439ZM26.6793 19.4439C26.6335 20.3311 26.5424 21.3732 26.3648 22.0396L26.6793 19.4439ZM16.2016 20.4883V20.7798L16.4539 20.6337L21.0109 17.9955L21.2621 17.8502L21.0109 17.7047L16.4539 15.0665L16.2016 14.9204V15.212V20.4883ZM16.5377 15.5034L20.5913 17.8502L16.5377 20.1968V15.5034Z" fill="white"/>
<path d="M26.3648 13.6606C26.1794 12.9635 25.6304 12.4127 24.9322 12.2241C24.6078 12.1372 24.0236 12.0692 23.3158 12.0175C22.6126 11.9663 21.8013 11.932 21.0312 11.9091C20.2614 11.8863 19.534 11.8748 18.999 11.8691C18.7314 11.8662 18.5122 11.8648 18.3598 11.8641L18.1838 11.8635L18.1377 11.8634H18.126H18.1231M26.3648 13.6606V22.0396M26.3648 13.6606C26.5426 14.327 26.6335 15.369 26.6793 16.2564C26.7021 16.6976 26.7134 17.0964 26.719 17.3849C26.7219 17.5291 26.7233 17.6455 26.724 17.726L26.7246 17.8184L26.7247 17.8422V17.8482V17.8497M26.3648 13.6606L26.7247 17.8497M18.1231 11.8634L18.1222 11.6953M18.1231 11.8634H18.1219H18.1183H18.1066L18.0607 11.8635L17.8847 11.8641C17.7324 11.8648 17.5131 11.8662 17.2458 11.8691C16.711 11.8748 15.9839 11.8863 15.2142 11.9091C14.4442 11.932 13.6331 11.9663 12.9297 12.0175C12.2218 12.0692 11.6372 12.1372 11.3121 12.2241C10.6172 12.4099 10.0677 12.9602 9.87946 13.6607C9.70178 14.3272 9.61081 15.369 9.56509 16.2564C9.54235 16.6976 9.53097 17.0964 9.52529 17.3849C9.52245 17.5291 9.52103 17.6455 9.52032 17.726L9.5197 17.8184L9.51962 17.8422V17.8482V17.8497M9.51962 17.8497L9.35156 17.8502M9.51962 17.8497V17.852V17.858L9.5197 17.8819L9.52032 17.9743C9.52103 18.0547 9.52245 18.1712 9.52529 18.3154C9.53097 18.6039 9.54235 19.0026 9.56509 19.4439C9.61081 20.3313 9.70179 21.3733 9.8795 22.0396C10.0649 22.7368 10.6139 23.2875 11.3123 23.4761C11.6374 23.5631 12.2219 23.6311 12.9297 23.6828C13.6331 23.734 14.4442 23.7682 15.2142 23.7912C15.9839 23.8141 16.711 23.8254 17.2458 23.8312C17.5131 23.8341 17.7324 23.8355 17.8847 23.8362L18.0607 23.8368L18.1066 23.8369H18.1183H18.1212M18.1212 23.8369L18.1222 24.0049M18.1212 23.8369H18.1224H18.126H18.1377L18.1838 23.8368L18.3598 23.8362C18.5122 23.8355 18.7314 23.8341 18.999 23.8312C19.534 23.8254 20.2614 23.8141 21.0312 23.7912C21.8013 23.7682 22.6126 23.734 23.3158 23.6828C24.0236 23.6311 24.6079 23.5631 24.9322 23.4761C25.627 23.2903 26.1765 22.7402 26.3648 22.0396M26.3648 22.0396C26.5424 21.3732 26.6335 20.3311 26.6793 19.4439M26.3648 22.0396L26.6793 19.4439M26.7247 17.8497V17.852V17.858L26.7246 17.8819L26.724 17.9743M26.724 17.9743C26.7233 18.0547 26.7219 18.1712 26.719 18.3154M26.724 17.9743L26.719 18.3154M26.719 18.3154C26.7134 18.6039 26.7021 19.0026 26.6793 19.4439M26.719 18.3154L26.6793 19.4439M16.2016 20.4883V20.7798L16.4539 20.6337L21.0109 17.9955L21.2621 17.8502L21.0109 17.7047L16.4539 15.0665L16.2016 14.9204V15.212V20.4883ZM16.5377 15.5034L20.5913 17.8502L16.5377 20.1968V15.5034Z" stroke="black" stroke-width="0.336102"/>
</g>
</g>
</g>
<defs>
<clipPath id="clip0_1404_11529">
<rect width="36.2519" height="36.2519" fill="white"/>
</clipPath>
<clipPath id="clip1_1404_11529">
<rect width="36.2519" height="36.2519" fill="white"/>
</clipPath>
<clipPath id="clip2_1404_11529">
<rect width="36.2519" height="36.2519" fill="white"/>
</clipPath>
</defs>
</svg>
