<svg width="100" height="25" viewBox="0 0 100 25" fill="none" xmlns="http://www.w3.org/2000/svg">
<g clip-path="url(#clip0_1401_13304)">
<g clip-path="url(#clip1_1401_13304)">
<mask id="mask0_1401_13304" style="mask-type:luminance" maskUnits="userSpaceOnUse" x="0" y="0" width="100" height="25">
<path d="M100 0H0V25H100V0Z" fill="white"/>
</mask>
<g mask="url(#mask0_1401_13304)">
<path d="M26.2784 8.86328H36.4037V10.7864H32.4224V21.597H30.2332V10.7864H26.2695V8.86328H26.2784ZM35.9712 12.377H37.8426V14.1563H37.878C37.9397 13.9046 38.0545 13.662 38.2222 13.4284C38.39 13.1947 38.593 12.9701 38.8313 12.7814C39.0697 12.5836 39.3345 12.4309 39.6258 12.3051C39.9171 12.1883 40.2172 12.1254 40.5174 12.1254C40.747 12.1254 40.9147 12.1344 41.003 12.1434C41.0912 12.1524 41.1795 12.1703 41.2766 12.1793V14.1383C41.1353 14.1114 40.9941 14.0934 40.844 14.0754C40.694 14.0574 40.5527 14.0484 40.4115 14.0484C40.076 14.0484 39.7582 14.1204 39.4581 14.2551C39.158 14.3899 38.902 14.5966 38.6812 14.8572C38.4605 15.1268 38.284 15.4503 38.1516 15.8457C38.0192 16.2411 37.9574 16.6904 37.9574 17.2026V21.588H35.9623V12.377H35.9712ZM50.4485 21.597H48.4888V20.3119H48.4535C48.2063 20.7792 47.8444 21.1476 47.3589 21.4262C46.8733 21.7048 46.379 21.8486 45.8758 21.8486C44.6841 21.8486 43.819 21.552 43.2893 20.9499C42.7597 20.3479 42.4948 19.4402 42.4948 18.2271V12.377H44.4899V18.0294C44.4899 18.8381 44.64 19.4133 44.9489 19.7458C45.249 20.0783 45.6816 20.249 46.2289 20.249C46.6527 20.249 46.997 20.1861 47.2794 20.0513C47.5619 19.9165 47.7914 19.7458 47.9592 19.5211C48.1357 19.3054 48.2593 19.0359 48.3387 18.7304C48.4182 18.4248 48.4535 18.0923 48.4535 17.7329V12.386H50.4485V21.597ZM53.8472 18.6404C53.909 19.2336 54.1297 19.6469 54.5093 19.8896C54.8977 20.1232 55.3567 20.249 55.8952 20.249C56.0806 20.249 56.2925 20.2311 56.5308 20.2041C56.7692 20.1771 56.9987 20.1142 57.2017 20.0334C57.4136 19.9525 57.5813 19.8266 57.7225 19.6649C57.855 19.5031 57.9167 19.2964 57.908 19.0359C57.8991 18.7753 57.802 18.5596 57.6255 18.3979C57.4489 18.2271 57.2282 18.1013 56.9545 17.9934C56.6809 17.8946 56.3719 17.8047 56.0188 17.7329C55.6657 17.6609 55.3126 17.5801 54.9507 17.4992C54.5799 17.4183 54.218 17.3105 53.8737 17.1936C53.5294 17.0769 53.2205 16.9151 52.9468 16.7084C52.6731 16.5107 52.4525 16.2501 52.2935 15.9356C52.1258 15.6211 52.0464 15.2346 52.0464 14.7674C52.0464 14.2641 52.17 13.8507 52.4083 13.5093C52.6467 13.1678 52.9556 12.8982 53.3175 12.6915C53.6883 12.4848 54.0944 12.341 54.5446 12.2511C54.9948 12.1703 55.4274 12.1254 55.8335 12.1254C56.3013 12.1254 56.7515 12.1793 57.1752 12.2781C57.599 12.377 57.9874 12.5387 58.3317 12.7724C58.676 12.9971 58.9585 13.2936 59.188 13.6531C59.4175 14.0125 59.5587 14.4529 59.6205 14.9651H57.5372C57.4401 14.4798 57.2282 14.1473 56.884 13.9856C56.5397 13.8148 56.1424 13.7339 55.701 13.7339C55.5597 13.7339 55.392 13.7429 55.1978 13.7699C55.0036 13.7969 54.8271 13.8418 54.6505 13.9046C54.4828 13.9676 54.3415 14.0664 54.218 14.1922C54.1032 14.318 54.0414 14.4798 54.0414 14.6865C54.0414 14.9381 54.1297 15.1358 54.2974 15.2886C54.4652 15.4414 54.6858 15.5671 54.9595 15.675C55.2332 15.7738 55.5421 15.8637 55.8952 15.9356C56.2483 16.0074 56.6102 16.0884 56.981 16.1692C57.343 16.2501 57.6961 16.3579 58.0492 16.4748C58.4023 16.5916 58.7112 16.7534 58.9849 16.96C59.2586 17.1667 59.4792 17.4183 59.647 17.7239C59.8147 18.0294 59.903 18.4158 59.903 18.8651C59.903 19.4133 59.7794 19.8716 59.5322 20.258C59.285 20.6354 58.9672 20.9499 58.5788 21.1836C58.1905 21.4172 57.749 21.597 57.2723 21.7048C56.7957 21.8126 56.319 21.8666 55.8511 21.8666C55.2773 21.8666 54.7476 21.8036 54.2621 21.6689C53.7766 21.5341 53.3529 21.3364 52.9997 21.0758C52.6467 20.8061 52.3642 20.4736 52.1611 20.0783C51.9581 19.6829 51.8522 19.2066 51.8345 18.6584H53.8472V18.6404ZM60.4327 12.377H61.9422V9.60921H63.9372V12.377H65.7381V13.8956H63.9372V18.8202C63.9372 19.0359 63.9461 19.2156 63.9637 19.3774C63.9814 19.5301 64.0255 19.6649 64.0873 19.7727C64.1491 19.8806 64.2462 19.9614 64.3786 20.0154C64.511 20.0693 64.6787 20.0962 64.9083 20.0962C65.0495 20.0962 65.1907 20.0962 65.332 20.0873C65.4732 20.0783 65.6145 20.0603 65.7557 20.0244V21.597C65.535 21.6239 65.3144 21.6419 65.1113 21.6689C64.8995 21.6958 64.6876 21.7048 64.4669 21.7048C63.9372 21.7048 63.5135 21.6509 63.1957 21.552C62.878 21.4532 62.622 21.3004 62.4454 21.1027C62.26 20.905 62.1452 20.6624 62.0746 20.3659C62.0128 20.0693 61.9687 19.7278 61.9598 19.3504V13.9136H60.4503V12.377H60.4327ZM67.1505 12.377H69.0397V13.6261H69.075C69.3575 13.0869 69.7459 12.7095 70.249 12.4759C70.7522 12.2422 71.2907 12.1254 71.8822 12.1254C72.5972 12.1254 73.215 12.2511 73.745 12.5118C74.2743 12.7634 74.7157 13.1139 75.0693 13.5631C75.4222 14.0125 75.6779 14.5337 75.8543 15.1268C76.0315 15.7199 76.1193 16.3579 76.1193 17.0319C76.1193 17.6519 76.04 18.2541 75.8815 18.8291C75.7222 19.4133 75.4836 19.9255 75.1657 20.3749C74.8486 20.8241 74.4422 21.1746 73.9479 21.4442C73.4536 21.7138 72.88 21.8486 72.2086 21.8486C71.9172 21.8486 71.6265 21.8216 71.3348 21.7677C71.0435 21.7138 70.761 21.6239 70.4962 21.5071C70.2314 21.3903 69.9754 21.2375 69.7547 21.0488C69.5252 20.8601 69.3398 20.6444 69.1809 20.4018H69.1456V25.0028H67.1505V12.377ZM74.1243 16.9959C74.1243 16.5826 74.0715 16.1782 73.9657 15.7828C73.8593 15.3874 73.7007 15.0459 73.4886 14.7404C73.2772 14.4349 73.0122 14.1922 72.7029 14.0125C72.385 13.8328 72.0236 13.7339 71.6172 13.7339C70.7787 13.7339 70.1431 14.0305 69.7194 14.6236C69.2957 15.2166 69.0838 16.0074 69.0838 16.9959C69.0838 17.4632 69.1367 17.8946 69.2515 18.29C69.3662 18.6854 69.5252 19.0269 69.7547 19.3144C69.9754 19.602 70.2402 19.8266 70.5492 19.9884C70.8582 20.1591 71.2201 20.24 71.6265 20.24C72.085 20.24 72.465 20.1411 72.7829 19.9525C73.1 19.7638 73.3565 19.5121 73.5593 19.2156C73.7622 18.9101 73.9122 18.5686 74.0007 18.1821C74.08 17.7957 74.1243 17.4004 74.1243 16.9959ZM77.6465 8.86328H79.6415V10.7864H77.6465V8.86328ZM77.6465 12.377H79.6415V21.597H77.6465V12.377ZM81.425 8.86328H83.42V21.597H81.425V8.86328ZM89.5372 21.8486C88.8136 21.8486 88.1693 21.7228 87.6043 21.4801C87.0393 21.2375 86.5629 20.896 86.165 20.4736C85.7772 20.0424 85.4765 19.5301 85.2736 18.937C85.0707 18.3439 84.965 17.6879 84.965 16.978C84.965 16.2771 85.0707 15.6301 85.2736 15.0369C85.4765 14.4439 85.7772 13.9316 86.165 13.5003C86.5536 13.0689 87.0393 12.7364 87.6043 12.4938C88.1693 12.2511 88.8136 12.1254 89.5372 12.1254C90.2615 12.1254 90.9057 12.2511 91.4707 12.4938C92.0357 12.7364 92.5122 13.0779 92.91 13.5003C93.2979 13.9316 93.5986 14.4439 93.8015 15.0369C94.0043 15.6301 94.11 16.2771 94.11 16.978C94.11 17.6879 94.0043 18.3439 93.8015 18.937C93.5986 19.5301 93.2979 20.0424 92.91 20.4736C92.5215 20.905 92.0357 21.2375 91.4707 21.4801C90.9057 21.7228 90.2615 21.8486 89.5372 21.8486ZM89.5372 20.24C89.9786 20.24 90.3672 20.1411 90.6943 19.9525C91.0207 19.7638 91.2857 19.5121 91.4972 19.2066C91.7093 18.9011 91.8593 18.5506 91.965 18.1642C92.0622 17.7778 92.115 17.3824 92.115 16.978C92.115 16.5826 92.0622 16.1961 91.965 15.8008C91.8679 15.4054 91.7093 15.0639 91.4972 14.7584C91.2857 14.4529 91.0207 14.2102 90.6943 14.0215C90.3672 13.8328 89.9786 13.7339 89.5372 13.7339C89.0965 13.7339 88.7079 13.8328 88.3807 14.0215C88.0543 14.2102 87.7893 14.4618 87.5779 14.7584C87.3657 15.0639 87.2157 15.4054 87.11 15.8008C87.0129 16.1961 86.96 16.5826 86.96 16.978C86.96 17.3824 87.0129 17.7778 87.11 18.1642C87.2072 18.5506 87.3657 18.9011 87.5779 19.2066C87.7893 19.5121 88.0543 19.7638 88.3807 19.9525C88.7079 20.1501 89.0965 20.24 89.5372 20.24ZM94.6929 12.377H96.2022V9.60921H98.1972V12.377H99.9986V13.8956H98.1972V18.8202C98.1972 19.0359 98.2065 19.2156 98.2243 19.3774C98.2415 19.5301 98.2857 19.6649 98.3479 19.7727C98.4093 19.8806 98.5065 19.9614 98.6386 20.0154C98.7715 20.0693 98.9393 20.0962 99.1686 20.0962C99.31 20.0962 99.4507 20.0962 99.5922 20.0873C99.7336 20.0783 99.875 20.0603 100.016 20.0244V21.597C99.795 21.6239 99.5743 21.6419 99.3715 21.6689C99.16 21.6958 98.9479 21.7048 98.7272 21.7048C98.1972 21.7048 97.7736 21.6509 97.4557 21.552C97.1379 21.4532 96.8822 21.3004 96.7057 21.1027C96.52 20.905 96.4057 20.6624 96.335 20.3659C96.2729 20.0693 96.2286 19.7278 96.22 19.3504V13.9136H94.7107V12.377H94.6929Z" fill="white"/>
<path fill-rule="evenodd" clip-rule="evenodd" d="M14.804 8.8605H23.9495L16.552 14.3331L11.9792 17.7119L17.1876 16.3369L16.573 14.3994L19.3768 23.1848L11.9792 17.7119L4.57274 23.1848L7.40643 14.3332L0 8.85157L9.1455 8.8605L11.9791 0L14.804 8.8605Z" fill="#00B67A"/>
</g>
</g>
</g>
<defs>
<clipPath id="clip0_1401_13304">
<rect width="100" height="25" fill="white"/>
</clipPath>
<clipPath id="clip1_1401_13304">
<rect width="100" height="25" fill="white"/>
</clipPath>
</defs>
</svg>
