<svg width="37" height="37" viewBox="0 0 37 37" fill="none" xmlns="http://www.w3.org/2000/svg">
<g clip-path="url(#clip0_1404_11534)">
<g clip-path="url(#clip1_1404_11534)">
<g clip-path="url(#clip2_1404_11534)">
<path d="M18.1239 35.3728C27.6502 35.3728 35.3728 27.6502 35.3728 18.1239C35.3728 8.59758 27.6502 0.875 18.1239 0.875C8.59758 0.875 0.875 8.59758 0.875 18.1239C0.875 27.6502 8.59758 35.3728 18.1239 35.3728Z" stroke="white" stroke-width="1.75412"/>
<path d="M10.3467 17.6936C10.3467 17.6936 17.5252 14.67 20.0148 13.6054C20.9692 13.1796 24.2057 11.8169 24.2057 11.8169C24.2057 11.8169 25.6995 11.2207 25.5751 12.6686C25.5336 13.2648 25.2016 15.3514 24.8697 17.6083C24.3716 20.8022 23.8323 24.2941 23.8323 24.2941C23.8323 24.2941 23.7493 25.2736 23.0439 25.444C22.3385 25.6143 21.1766 24.8478 20.9692 24.6774C20.8032 24.5497 17.8571 22.6333 16.7783 21.6965C16.4878 21.441 16.1558 20.93 16.8197 20.3338C18.3135 18.9285 20.0978 17.1825 21.1766 16.0753C21.6746 15.5643 22.1724 14.372 20.0978 15.8198C17.1517 17.9065 14.2471 19.8654 14.2471 19.8654C14.2471 19.8654 13.5832 20.2912 12.3384 19.908C11.0935 19.5248 9.6412 19.0137 9.6412 19.0137C9.6412 19.0137 8.6454 18.3749 10.3467 17.6936Z" fill="white"/>
</g>
</g>
</g>
<defs>
<clipPath id="clip0_1404_11534">
<rect width="36.2519" height="36.2519" fill="white"/>
</clipPath>
<clipPath id="clip1_1404_11534">
<rect width="36.2519" height="36.2519" fill="white"/>
</clipPath>
<clipPath id="clip2_1404_11534">
<rect width="36.2519" height="36.2519" fill="white"/>
</clipPath>
</defs>
</svg>
